<svg xmlns="http://www.w3.org/2000/svg" xmlns:xlink="http://www.w3.org/1999/xlink" xmlns:lucid="lucid" width="1311.83" height="820"><g transform="translate(-10.617283950617292 0)" lucid:page-tab-id="0_0"><path d="M79.03 350.62h240v60h-240z" fill="none"/><use xlink:href="#a" transform="matrix(1,0,0,1,79.03395061728398,350.6172839506173) translate(44.3876953125 35.396484375)"/><path d="M438.87 168l-26.26-45.36c-1.04-1.76-1.57-3.67-1.57-5.73 0-2.05.53-3.96 1.58-5.73l26.27-45.37c1.02-1.8 2.4-3.22 4.2-4.25 1.8-1.04 3.73-1.55 5.8-1.53h52.43c2.06 0 4 .53 5.77 1.56 1.78 1.04 3.2 2.44 4.23 4.22l26.16 45.37c1.05 1.77 1.57 3.68 1.57 5.74 0 2.07-.52 3.98-1.57 5.74L511.3 168c-1.03 1.8-2.45 3.2-4.23 4.23-1.78 1.04-3.7 1.55-5.77 1.56h-52.43c-2.05-.04-3.97-.6-5.75-1.6-1.78-1.04-3.2-2.43-4.25-4.2zm0 0" fill="#0e62c2"/><path d="M497.4 93.23l-43.35 3-1.4 10.36 5 4.97-5.1 12.96 11.1 11.07-11 2.8 35.36 35.3h13.2c2.06-.02 4-.54 5.77-1.57 1.78-1.04 3.2-2.44 4.22-4.22l22.37-38.58z" fill="#0851b0"/><path d="M472.83 104.7h4.5v31.4h-4.5z" fill="#fff"/><path d="M452.56 133.9h44.95v4.5h-44.94z" fill="#fff"/><path d="M471.54 131.6h7c.17 0 .33.03.5.12.17.1.28.22.37.38.1.16.14.33.13.5v6.98c0 .2-.03.36-.12.52-.08.16-.2.28-.36.37-.17.1-.33.13-.5.12h-7c-.18 0-.35-.04-.5-.13-.18-.1-.3-.2-.38-.37-.1-.16-.13-.33-.12-.52v-6.97c0-.26.1-.5.3-.7.2-.2.42-.3.7-.3zM452.56 94.22v11.47c-.02.17.02.34.1.5.1.16.22.28.38.37.17.1.34.13.52.12h42.95c.2 0 .36-.03.52-.13.17-.1.3-.2.38-.37.1-.16.12-.33.1-.5V94.2c.02-.2 0-.36-.1-.52-.1-.15-.2-.27-.38-.36-.16-.1-.33-.12-.5-.1h-42.96c-.3 0-.52.08-.7.27-.2.2-.3.44-.3.72zm9 7.97h-4.5v-4.5h4.5zM452.56 112.47v11.47c-.02.18.02.35.1.5.1.17.22.28.38.37.17.1.34.14.52.13h42.95c.2 0 .36-.02.52-.12.17-.08.3-.2.38-.35.1-.16.12-.33.1-.5v-11.48c.02-.18 0-.35-.1-.5-.1-.17-.2-.3-.38-.4-.16-.08-.33-.1-.5-.1h-42.96c-.18 0-.35.02-.52.1-.16.1-.28.23-.37.4-.1.15-.13.32-.1.5zm9 7.98h-4.5v-4.5h4.5z" fill="#fff"/><path d="M660 42.27h566.28v161.2H660z" stroke="#000" stroke-width="2" fill="#fff"/><use xlink:href="#b" transform="matrix(1,0,0,1,665,47.26957561728398) translate(229.27499999999998 41.8)"/><use xlink:href="#c" transform="matrix(1,0,0,1,665,47.26957561728398) translate(267.825 41.8)"/><use xlink:href="#d" transform="matrix(1,0,0,1,665,47.26957561728398) translate(185.125 63.4)"/><use xlink:href="#e" transform="matrix(1,0,0,1,665,47.26957561728398) translate(254.025 63.4)"/><use xlink:href="#f" transform="matrix(1,0,0,1,665,47.26957561728398) translate(278.025 63.4)"/><use xlink:href="#g" transform="matrix(1,0,0,1,665,47.26957561728398) translate(324.975 63.4)"/><use xlink:href="#h" transform="matrix(1,0,0,1,665,47.26957561728398) translate(19.2578125 84.996484375)"/><use xlink:href="#i" transform="matrix(1,0,0,1,665,47.26957561728398) translate(246.0947265625 84.996484375)"/><use xlink:href="#j" transform="matrix(1,0,0,1,665,47.26957561728398) translate(278.5 84.996484375)"/><use xlink:href="#k" transform="matrix(1,0,0,1,665,47.26957561728398) translate(321.70703125 84.996484375)"/><use xlink:href="#h" transform="matrix(1,0,0,1,665,47.26957561728398) translate(19.2578125 102.996484375)"/><use xlink:href="#i" transform="matrix(1,0,0,1,665,47.26957561728398) translate(246.0947265625 102.996484375)"/><use xlink:href="#j" transform="matrix(1,0,0,1,665,47.26957561728398) translate(278.5 102.996484375)"/><use xlink:href="#l" transform="matrix(1,0,0,1,665,47.26957561728398) translate(321.70703125 102.996484375)"/><use xlink:href="#h" transform="matrix(1,0,0,1,665,47.26957561728398) translate(19.2578125 120.996484375)"/><use xlink:href="#i" transform="matrix(1,0,0,1,665,47.26957561728398) translate(246.0947265625 120.996484375)"/><use xlink:href="#j" transform="matrix(1,0,0,1,665,47.26957561728398) translate(278.5 120.996484375)"/><use xlink:href="#m" transform="matrix(1,0,0,1,665,47.26957561728398) translate(321.70703125 120.996484375)"/><path d="M950.62 460.62c0-16.57 13.43-30 30-30h260c16.57 0 30 13.43 30 30V770c0 16.57-13.43 30-30 30h-260c-16.57 0-30-13.43-30-30z" fill="none"/><path d="M951.62 460.62c0 .55-.45 1-1 1-.56 0-1-.45-1-1 0-.56.44-1 1-1 .55 0 1 .44 1 1zm1.1-7.74c0 .55-.44 1-1 1-.54 0-1-.45-1-1 0-.56.46-1 1-1 .56 0 1 .44 1 1zm2.96-7.24c0 .55-.45 1-1 1-.56 0-1-.45-1-1s.44-1 1-1c.55 0 1 .45 1 1zm4.8-6.18c0 .55-.46 1-1 1-.57 0-1-.45-1-1s.43-1 1-1c.54 0 1 .45 1 1zm6.18-4.76c0 .56-.45 1-1 1-.56 0-1-.44-1-1 0-.55.44-1 1-1 .55 0 1 .45 1 1zm7.2-3.02c0 .55-.44 1-1 1-.55 0-1-.45-1-1s.45-1 1-1c.56 0 1 .45 1 1zm7.76-1.06c0 .55-.45 1-1 1-.56 0-1-.45-1-1 0-.56.44-1 1-1 .55 0 1 .44 1 1zm7.88 0c0 .55-.45 1-1 1-.56 0-1-.45-1-1 0-.56.44-1 1-1 .55 0 1 .44 1 1zm7.87 0c0 .55-.44 1-1 1-.55 0-1-.45-1-1 0-.56.45-1 1-1 .56 0 1 .44 1 1zm7.88 0c0 .55-.44 1-1 1-.55 0-1-.45-1-1 0-.56.45-1 1-1 .56 0 1 .44 1 1zm7.88 0c0 .55-.45 1-1 1s-1-.45-1-1c0-.56.45-1 1-1s1 .44 1 1zm7.88 0c0 .55-.44 1-1 1-.54 0-1-.45-1-1 0-.56.46-1 1-1 .56 0 1 .44 1 1zm7.9 0c0 .55-.46 1-1 1-.56 0-1-.45-1-1 0-.56.44-1 1-1 .54 0 1 .44 1 1zm7.87 0c0 .55-.45 1-1 1s-1-.45-1-1c0-.56.45-1 1-1s1 .44 1 1zm7.88 0c0 .55-.45 1-1 1s-1-.45-1-1c0-.56.45-1 1-1s1 .44 1 1zm7.88 0c0 .55-.45 1-1 1-.56 0-1-.45-1-1 0-.56.44-1 1-1 .55 0 1 .44 1 1zm7.88 0c0 .55-.44 1-1 1-.55 0-1-.45-1-1 0-.56.45-1 1-1 .56 0 1 .44 1 1zm7.88 0c0 .55-.44 1-1 1-.55 0-1-.45-1-1 0-.56.45-1 1-1 .56 0 1 .44 1 1zm7.88 0c0 .55-.44 1-1 1-.55 0-1-.45-1-1 0-.56.45-1 1-1 .56 0 1 .44 1 1zm7.88 0c0 .55-.45 1-1 1s-1-.45-1-1c0-.56.45-1 1-1s1 .44 1 1zm7.88 0c0 .55-.45 1-1 1s-1-.45-1-1c0-.56.45-1 1-1s1 .44 1 1zm7.88 0c0 .55-.45 1-1 1s-1-.45-1-1c0-.56.45-1 1-1s1 .44 1 1zm7.88 0c0 .55-.45 1-1 1s-1-.45-1-1c0-.56.45-1 1-1s1 .44 1 1zm7.88 0c0 .55-.45 1-1 1-.56 0-1-.45-1-1 0-.56.44-1 1-1 .55 0 1 .44 1 1zm7.88 0c0 .55-.45 1-1 1-.56 0-1-.45-1-1 0-.56.44-1 1-1 .55 0 1 .44 1 1zm7.87 0c0 .55-.43 1-1 1-.54 0-1-.45-1-1 0-.56.46-1 1-1 .57 0 1 .44 1 1zm7.9 0c0 .55-.45 1-1 1-.56 0-1-.45-1-1 0-.56.44-1 1-1 .55 0 1 .44 1 1zm7.87 0c0 .55-.45 1-1 1s-1-.45-1-1c0-.56.45-1 1-1s1 .44 1 1zm7.88 0c0 .55-.45 1-1 1s-1-.45-1-1c0-.56.45-1 1-1s1 .44 1 1zm7.88 0c0 .55-.45 1-1 1s-1-.45-1-1c0-.56.45-1 1-1s1 .44 1 1zm7.88 0c0 .55-.44 1-1 1-.54 0-1-.45-1-1 0-.56.46-1 1-1 .56 0 1 .44 1 1zm7.9 0c0 .55-.46 1-1 1-.57 0-1-.45-1-1 0-.56.43-1 1-1 .54 0 1 .44 1 1zm7.87 0c0 .55-.45 1-1 1-.56 0-1-.45-1-1 0-.56.44-1 1-1 .55 0 1 .44 1 1zm7.87 0c0 .55-.44 1-1 1-.55 0-1-.45-1-1 0-.56.45-1 1-1 .56 0 1 .44 1 1zm7.88 0c0 .55-.44 1-1 1-.55 0-1-.45-1-1 0-.56.45-1 1-1 .56 0 1 .44 1 1zm7.88 0c0 .55-.45 1-1 1s-1-.45-1-1c0-.56.45-1 1-1s1 .44 1 1zm7.88 0c0 .55-.45 1-1 1s-1-.45-1-1c0-.56.45-1 1-1s1 .44 1 1zm7.88 0c0 .55-.45 1-1 1s-1-.45-1-1c0-.56.45-1 1-1s1 .44 1 1zm7.88 0c0 .55-.45 1-1 1s-1-.45-1-1c0-.56.45-1 1-1s1 .44 1 1zm7.88 0c0 .55-.45 1-1 1-.56 0-1-.45-1-1 0-.56.44-1 1-1 .55 0 1 .44 1 1zm7.74 1.1c0 .56-.45 1-1 1s-1-.44-1-1c0-.54.45-1 1-1s1 .46 1 1zm7.23 2.96c0 .55-.46 1-1 1-.56 0-1-.45-1-1 0-.56.44-1 1-1 .54 0 1 .44 1 1zm6.17 4.8c0 .54-.45 1-1 1s-1-.46-1-1c0-.57.45-1 1-1s1 .43 1 1zm4.76 6.18c0 .55-.45 1-1 1s-1-.45-1-1c0-.56.45-1 1-1s1 .44 1 1zm3.02 7.2c0 .56-.44 1-1 1-.55 0-1-.44-1-1 0-.55.45-1 1-1 .56 0 1 .45 1 1zm1.07 7.76c0 .55-.45 1-1 1-.56 0-1-.45-1-1 0-.56.44-1 1-1 .55 0 1 .44 1 1zm0 7.93c0 .55-.45 1-1 1-.56 0-1-.45-1-1s.44-1 1-1c.55 0 1 .45 1 1zm0 7.93c0 .56-.45 1-1 1-.56 0-1-.44-1-1 0-.55.44-1 1-1 .55 0 1 .45 1 1zm0 7.94c0 .55-.45 1-1 1-.56 0-1-.45-1-1 0-.56.44-1 1-1 .55 0 1 .44 1 1zm0 7.93c0 .55-.45 1-1 1-.56 0-1-.45-1-1s.44-1 1-1c.55 0 1 .45 1 1zm0 7.93c0 .55-.45 1-1 1-.56 0-1-.45-1-1s.44-1 1-1c.55 0 1 .45 1 1zm0 7.93c0 .57-.45 1-1 1-.56 0-1-.43-1-1 0-.54.44-1 1-1 .55 0 1 .46 1 1zm0 7.95c0 .55-.45 1-1 1-.56 0-1-.45-1-1s.44-1 1-1c.55 0 1 .45 1 1zm0 7.93c0 .55-.45 1-1 1-.56 0-1-.45-1-1s.44-1 1-1c.55 0 1 .45 1 1zm0 7.93c0 .57-.45 1-1 1-.56 0-1-.43-1-1 0-.54.44-1 1-1 .55 0 1 .46 1 1zm0 7.95c0 .55-.45 1-1 1-.56 0-1-.45-1-1 0-.56.44-1 1-1 .55 0 1 .44 1 1zm0 7.93c0 .55-.45 1-1 1-.56 0-1-.45-1-1s.44-1 1-1c.55 0 1 .45 1 1zm0 7.93c0 .56-.45 1-1 1-.56 0-1-.44-1-1 0-.54.44-1 1-1 .55 0 1 .46 1 1zm0 7.94c0 .56-.45 1-1 1-.56 0-1-.44-1-1 0-.55.44-1 1-1 .55 0 1 .45 1 1zm0 7.94c0 .55-.45 1-1 1-.56 0-1-.45-1-1s.44-1 1-1c.55 0 1 .45 1 1zm0 7.93c0 .56-.45 1-1 1-.56 0-1-.44-1-1 0-.54.44-1 1-1 .55 0 1 .46 1 1zm0 7.94c0 .56-.45 1-1 1-.56 0-1-.44-1-1 0-.55.44-1 1-1 .55 0 1 .45 1 1zm0 7.94c0 .55-.45 1-1 1-.56 0-1-.45-1-1 0-.56.44-1 1-1 .55 0 1 .44 1 1zm0 7.93c0 .56-.45 1-1 1-.56 0-1-.44-1-1 0-.54.44-1 1-1 .55 0 1 .46 1 1zm0 7.94c0 .55-.45 1-1 1-.56 0-1-.45-1-1s.44-1 1-1c.55 0 1 .45 1 1zm0 7.94c0 .55-.45 1-1 1-.56 0-1-.45-1-1 0-.56.44-1 1-1 .55 0 1 .44 1 1zm0 7.93c0 .56-.45 1-1 1-.56 0-1-.44-1-1 0-.54.44-1 1-1 .55 0 1 .46 1 1zm0 7.94c0 .55-.45 1-1 1-.56 0-1-.45-1-1s.44-1 1-1c.55 0 1 .45 1 1zm0 7.93c0 .56-.45 1-1 1-.56 0-1-.44-1-1 0-.55.44-1 1-1 .55 0 1 .45 1 1zm0 7.94c0 .56-.45 1-1 1-.56 0-1-.44-1-1 0-.55.44-1 1-1 .55 0 1 .45 1 1zm0 7.94c0 .55-.45 1-1 1-.56 0-1-.45-1-1s.44-1 1-1c.55 0 1 .45 1 1zm0 7.93c0 .55-.45 1-1 1-.56 0-1-.45-1-1s.44-1 1-1c.55 0 1 .45 1 1zm0 7.94c0 .56-.45 1-1 1-.56 0-1-.44-1-1 0-.55.44-1 1-1 .55 0 1 .45 1 1zm0 7.94c0 .55-.45 1-1 1-.56 0-1-.45-1-1s.44-1 1-1c.55 0 1 .45 1 1zm0 7.93c0 .55-.45 1-1 1-.56 0-1-.45-1-1s.44-1 1-1c.55 0 1 .45 1 1zm0 7.93c0 .56-.45 1-1 1-.56 0-1-.44-1-1 0-.55.44-1 1-1 .55 0 1 .45 1 1zm0 7.94c0 .55-.45 1-1 1-.56 0-1-.45-1-1 0-.56.44-1 1-1 .55 0 1 .44 1 1zm0 7.93c0 .55-.45 1-1 1-.56 0-1-.45-1-1s.44-1 1-1c.55 0 1 .45 1 1zm0 7.93c0 .55-.45 1-1 1-.56 0-1-.45-1-1s.44-1 1-1c.55 0 1 .45 1 1zm0 7.94c0 .55-.45 1-1 1-.56 0-1-.45-1-1 0-.56.44-1 1-1 .55 0 1 .44 1 1zm0 7.93c0 .55-.45 1-1 1-.56 0-1-.45-1-1s.44-1 1-1c.55 0 1 .45 1 1zm0 7.93c0 .55-.45 1-1 1-.56 0-1-.45-1-1s.44-1 1-1c.55 0 1 .45 1 1zm0 7.93c0 .56-.45 1-1 1-.56 0-1-.44-1-1 0-.55.44-1 1-1 .55 0 1 .45 1 1zm0 7.94c0 .55-.45 1-1 1-.56 0-1-.45-1-1 0-.56.44-1 1-1 .55 0 1 .44 1 1zm0 7.93c0 .55-.45 1-1 1-.56 0-1-.45-1-1s.44-1 1-1c.55 0 1 .45 1 1zm-1.12 7.74c0 .55-.44 1-1 1-.55 0-1-.45-1-1s.45-1 1-1c.56 0 1 .45 1 1zm-2.94 7.23c0 .56-.45 1-1 1s-1-.44-1-1c0-.55.45-1 1-1s1 .45 1 1zm-4.8 6.18c0 .56-.44 1-1 1-.54 0-1-.44-1-1 0-.55.46-1 1-1 .56 0 1 .45 1 1zm-6.18 4.76c0 .57-.45 1-1 1s-1-.43-1-1c0-.54.45-1 1-1s1 .46 1 1zm-7.2 3.04c0 .55-.46 1-1 1-.56 0-1-.45-1-1 0-.56.44-1 1-1 .54 0 1 .44 1 1zm-7.76 1.06c0 .55-.45 1-1 1-.56 0-1-.45-1-1s.44-1 1-1c.55 0 1 .45 1 1zm-7.88 0c0 .55-.45 1-1 1s-1-.45-1-1 .45-1 1-1 1 .45 1 1zm-7.88 0c0 .55-.45 1-1 1s-1-.45-1-1 .45-1 1-1 1 .45 1 1zm-7.88 0c0 .55-.45 1-1 1s-1-.45-1-1 .45-1 1-1 1 .45 1 1zm-7.88 0c0 .55-.45 1-1 1s-1-.45-1-1 .45-1 1-1 1 .45 1 1zm-7.88 0c0 .55-.44 1-1 1-.55 0-1-.45-1-1s.45-1 1-1c.56 0 1 .45 1 1zm-7.88 0c0 .55-.44 1-1 1-.55 0-1-.45-1-1s.45-1 1-1c.56 0 1 .45 1 1zm-7.87 0c0 .55-.45 1-1 1-.56 0-1-.45-1-1s.44-1 1-1c.55 0 1 .45 1 1zm-7.88 0c0 .55-.46 1-1 1-.57 0-1-.45-1-1s.43-1 1-1c.54 0 1 .45 1 1zm-7.9 0c0 .55-.44 1-1 1-.54 0-1-.45-1-1s.46-1 1-1c.56 0 1 .45 1 1zm-7.87 0c0 .55-.45 1-1 1s-1-.45-1-1 .45-1 1-1 1 .45 1 1zm-7.88 0c0 .55-.45 1-1 1s-1-.45-1-1 .45-1 1-1 1 .45 1 1zm-7.88 0c0 .55-.45 1-1 1s-1-.45-1-1 .45-1 1-1 1 .45 1 1zm-7.88 0c0 .55-.45 1-1 1-.56 0-1-.45-1-1s.44-1 1-1c.55 0 1 .45 1 1zm-7.9 0c0 .55-.43 1-1 1-.54 0-1-.45-1-1s.46-1 1-1c.57 0 1 .45 1 1zm-7.86 0c0 .55-.45 1-1 1-.56 0-1-.45-1-1s.44-1 1-1c.55 0 1 .45 1 1zm-7.88 0c0 .55-.45 1-1 1-.56 0-1-.45-1-1s.44-1 1-1c.55 0 1 .45 1 1zm-7.88 0c0 .55-.45 1-1 1s-1-.45-1-1 .45-1 1-1 1 .45 1 1zm-7.88 0c0 .55-.45 1-1 1s-1-.45-1-1 .45-1 1-1 1 .45 1 1zm-7.88 0c0 .55-.45 1-1 1s-1-.45-1-1 .45-1 1-1 1 .45 1 1zm-7.88 0c0 .55-.45 1-1 1s-1-.45-1-1 .45-1 1-1 1 .45 1 1zm-7.88 0c0 .55-.44 1-1 1-.55 0-1-.45-1-1s.45-1 1-1c.56 0 1 .45 1 1zm-7.88 0c0 .55-.44 1-1 1-.55 0-1-.45-1-1s.45-1 1-1c.56 0 1 .45 1 1zm-7.87 0c0 .55-.44 1-1 1-.55 0-1-.45-1-1s.45-1 1-1c.56 0 1 .45 1 1zm-7.87 0c0 .55-.45 1-1 1-.56 0-1-.45-1-1s.44-1 1-1c.55 0 1 .45 1 1zm-7.88 0c0 .55-.45 1-1 1s-1-.45-1-1 .45-1 1-1 1 .45 1 1zm-7.88 0c0 .55-.45 1-1 1s-1-.45-1-1 .45-1 1-1 1 .45 1 1zm-7.88 0c0 .55-.46 1-1 1-.56 0-1-.45-1-1s.44-1 1-1c.54 0 1 .45 1 1zm-7.9 0c0 .55-.44 1-1 1-.54 0-1-.45-1-1s.46-1 1-1c.56 0 1 .45 1 1zm-7.87 0c0 .55-.45 1-1 1s-1-.45-1-1 .45-1 1-1 1 .45 1 1zm-7.88 0c0 .55-.44 1-1 1-.55 0-1-.45-1-1s.45-1 1-1c.56 0 1 .45 1 1zm-7.88 0c0 .55-.44 1-1 1-.55 0-1-.45-1-1s.45-1 1-1c.56 0 1 .45 1 1zm-7.87 0c0 .55-.45 1-1 1-.56 0-1-.45-1-1s.44-1 1-1c.55 0 1 .45 1 1zm-7.88 0c0 .55-.45 1-1 1-.56 0-1-.45-1-1s.44-1 1-1c.55 0 1 .45 1 1zm-7.74-1.1c0 .54-.45 1-1 1-.56 0-1-.46-1-1 0-.57.44-1 1-1 .55 0 1 .43 1 1zm-7.24-2.96c0 .55-.45 1-1 1s-1-.45-1-1 .45-1 1-1 1 .45 1 1zm-6.18-4.8c0 .56-.45 1-1 1s-1-.44-1-1c0-.54.45-1 1-1s1 .46 1 1zm-4.76-6.18c0 .55-.44 1-1 1-.55 0-1-.45-1-1s.45-1 1-1c.56 0 1 .45 1 1zm-3.02-7.2c0 .54-.45 1-1 1s-1-.46-1-1c0-.56.45-1 1-1s1 .44 1 1zm-1.06-7.76c0 .55-.45 1-1 1-.56 0-1-.45-1-1s.44-1 1-1c.55 0 1 .45 1 1zm0-7.93c0 .55-.45 1-1 1-.56 0-1-.45-1-1 0-.56.44-1 1-1 .55 0 1 .44 1 1zm0-7.94c0 .56-.45 1-1 1-.56 0-1-.44-1-1 0-.55.44-1 1-1 .55 0 1 .45 1 1zm0-7.93c0 .55-.45 1-1 1-.56 0-1-.45-1-1s.44-1 1-1c.55 0 1 .45 1 1zm0-7.93c0 .55-.45 1-1 1-.56 0-1-.45-1-1s.44-1 1-1c.55 0 1 .45 1 1zm0-7.93c0 .55-.45 1-1 1-.56 0-1-.45-1-1 0-.56.44-1 1-1 .55 0 1 .44 1 1zm0-7.94c0 .55-.45 1-1 1-.56 0-1-.45-1-1s.44-1 1-1c.55 0 1 .45 1 1zm0-7.93c0 .55-.45 1-1 1-.56 0-1-.45-1-1s.44-1 1-1c.55 0 1 .45 1 1zm0-7.93c0 .55-.45 1-1 1-.56 0-1-.45-1-1 0-.56.44-1 1-1 .55 0 1 .44 1 1zm0-7.94c0 .56-.45 1-1 1-.56 0-1-.44-1-1 0-.55.44-1 1-1 .55 0 1 .45 1 1zm0-7.93c0 .55-.45 1-1 1-.56 0-1-.45-1-1s.44-1 1-1c.55 0 1 .45 1 1zm0-7.93c0 .55-.45 1-1 1-.56 0-1-.45-1-1s.44-1 1-1c.55 0 1 .45 1 1zm0-7.93c0 .56-.45 1-1 1-.56 0-1-.44-1-1 0-.55.44-1 1-1 .55 0 1 .45 1 1zm0-7.93c0 .55-.45 1-1 1-.56 0-1-.45-1-1s.44-1 1-1c.55 0 1 .45 1 1zm0-7.93c0 .55-.45 1-1 1-.56 0-1-.45-1-1s.44-1 1-1c.55 0 1 .45 1 1zm0-7.93c0 .56-.45 1-1 1-.56 0-1-.44-1-1 0-.55.44-1 1-1 .55 0 1 .45 1 1zm0-7.93c0 .56-.45 1-1 1-.56 0-1-.44-1-1 0-.55.44-1 1-1 .55 0 1 .45 1 1zm0-7.93c0 .55-.45 1-1 1-.56 0-1-.45-1-1s.44-1 1-1c.55 0 1 .45 1 1zm0-7.93c0 .56-.45 1-1 1-.56 0-1-.44-1-1 0-.54.44-1 1-1 .55 0 1 .46 1 1zm0-7.92c0 .55-.45 1-1 1-.56 0-1-.45-1-1 0-.56.44-1 1-1 .55 0 1 .44 1 1zm0-7.94c0 .55-.45 1-1 1-.56 0-1-.45-1-1s.44-1 1-1c.55 0 1 .45 1 1zm0-7.93c0 .56-.45 1-1 1-.56 0-1-.44-1-1 0-.54.44-1 1-1 .55 0 1 .46 1 1zm0-7.92c0 .55-.45 1-1 1-.56 0-1-.45-1-1 0-.56.44-1 1-1 .55 0 1 .44 1 1zm0-7.94c0 .56-.45 1-1 1-.56 0-1-.44-1-1 0-.55.44-1 1-1 .55 0 1 .45 1 1zm0-7.93c0 .56-.45 1-1 1-.56 0-1-.44-1-1 0-.54.44-1 1-1 .55 0 1 .46 1 1zm0-7.92c0 .55-.45 1-1 1-.56 0-1-.45-1-1s.44-1 1-1c.55 0 1 .45 1 1zm0-7.94c0 .56-.45 1-1 1-.56 0-1-.44-1-1 0-.55.44-1 1-1 .55 0 1 .45 1 1zm0-7.93c0 .56-.45 1-1 1-.56 0-1-.44-1-1 0-.54.44-1 1-1 .55 0 1 .46 1 1zm0-7.92c0 .55-.45 1-1 1-.56 0-1-.45-1-1s.44-1 1-1c.55 0 1 .45 1 1zm0-7.93c0 .55-.45 1-1 1-.56 0-1-.45-1-1 0-.56.44-1 1-1 .55 0 1 .44 1 1zm0-7.94c0 .57-.45 1-1 1-.56 0-1-.43-1-1 0-.54.44-1 1-1 .55 0 1 .46 1 1zm0-7.92c0 .55-.45 1-1 1-.56 0-1-.45-1-1s.44-1 1-1c.55 0 1 .45 1 1zm0-7.93c0 .55-.45 1-1 1-.56 0-1-.45-1-1s.44-1 1-1c.55 0 1 .45 1 1zm0-7.94c0 .57-.45 1-1 1-.56 0-1-.43-1-1 0-.54.44-1 1-1 .55 0 1 .46 1 1zm0-7.92c0 .55-.45 1-1 1-.56 0-1-.45-1-1s.44-1 1-1c.55 0 1 .45 1 1zm0-7.93c0 .55-.45 1-1 1-.56 0-1-.45-1-1s.44-1 1-1c.55 0 1 .45 1 1zm0-7.93c0 .55-.45 1-1 1-.56 0-1-.45-1-1 0-.56.44-1 1-1 .55 0 1 .44 1 1zm0-7.94c0 .56-.45 1-1 1-.56 0-1-.44-1-1 0-.55.44-1 1-1 .55 0 1 .45 1 1zm0-7.93c0 .55-.45 1-1 1-.56 0-1-.45-1-1s.44-1 1-1c.55 0 1 .45 1 1z" fill="#474747"/><use xlink:href="#n" transform="matrix(1,0,0,1,950.6172839506173,769.9999999999998) translate(65.575 12.799999999999999)"/><use xlink:href="#o" transform="matrix(1,0,0,1,950.6172839506173,769.9999999999998) translate(124.525 12.799999999999999)"/><use xlink:href="#p" transform="matrix(1,0,0,1,950.6172839506173,769.9999999999998) translate(171.525 12.799999999999999)"/><use xlink:href="#q" transform="matrix(1,0,0,1,950.6172839506173,769.9999999999998) translate(191.525 12.799999999999999)"/><use xlink:href="#r" transform="matrix(1,0,0,1,950.6172839506173,769.9999999999998) translate(241.47500000000002 12.799999999999999)"/><path d="M1039.06 471.1l-5.05 3.4-2.46-5.54c-4.02-8.66-12.16-13.9-21.73-13.9h-.1c-13.18 0-23.8 10.67-23.8 23.75l.1 4.43-3.7 1.07c-6.07 1.74-11.02 9.5-11.02 14.75v1.9c0 6.4 7.83 13.8 17.82 13.8h67.36c10 0 17.82-7.4 17.82-13.8v-1.9c0-6.45-7.2-14.87-15.65-15.64l-4.53-.35-.1-4.48c-.1-1.9-.63-3.52-1.66-5.07-2.98-4.36-8.96-5.44-13.28-2.45z" fill="#19486f"/><path d="M1039.06 466.67l-5.05 3.4-2.56-5.5c-3.92-8.7-12.06-13.95-21.63-13.95h-.1c-13.18 0-23.8 10.62-23.8 23.75l.1 4.42-3.7 1.06c-6.07 1.74-11.02 9.5-11.02 14.75v1.92c0 6.38 7.83 13.8 17.82 13.8h67.36c10 0 17.82-7.42 17.82-13.8v-1.9c0-6.46-7.2-14.87-15.65-15.6l-4.53-.4-.1-4.5c-.1-1.9-.63-3.5-1.66-5.06-2.98-4.36-8.96-5.43-13.28-2.45z" fill="#2e73b8"/><path d="M977.57 537.27h87.6v33.34h-87.6v-33.33z" fill="#19486f"/><path d="M977.57 532.76h87.6v33.33h-87.6v-33.34z" fill="#2e73b8"/><path d="M1019.1 510.3h4.54v39.1h-4.53v-39.1z" fill="#2e73b8"/><path d="M1019.1 495.17h4.54v15.16h-4.53v-15.16z" fill="#fff"/><path d="M1021.37 486.64l-6.8 9.9h13.6l-6.8-9.9zM995.42 541.78h.03c7.3 0 7.3 0 7.3 7.25v.03c0 7.25 0 7.25-7.3 7.25h-.03c-7.3 0-7.3 0-7.3-7.24v-.03c0-7.25 0-7.25 7.3-7.25zM1030.7 556.3h-18.9l9.45-14.52 9.44 14.52zM1039.76 541.78h14.6v14.53h-14.6V541.8z" fill="#fff"/><use xlink:href="#s" transform="matrix(1,0,0,1,971.2839506172838,570.6172839506173) translate(7.075000000000003 14.4)"/><use xlink:href="#t" transform="matrix(1,0,0,1,971.2839506172838,570.6172839506173) translate(54.025000000000006 14.4)"/><path d="M490.62 460.62c0-16.57 13.43-30 30-30h260c16.57 0 30 13.43 30 30V770c0 16.57-13.43 30-30 30h-260c-16.57 0-30-13.43-30-30z" fill="none"/><path d="M491.62 460.62c0 .55-.45 1-1 1-.56 0-1-.45-1-1 0-.56.44-1 1-1 .55 0 1 .44 1 1zm1.1-7.74c0 .55-.44 1-1 1-.54 0-1-.45-1-1 0-.56.46-1 1-1 .56 0 1 .44 1 1zm2.96-7.24c0 .55-.45 1-1 1-.56 0-1-.45-1-1s.44-1 1-1c.55 0 1 .45 1 1zm4.8-6.18c0 .55-.46 1-1 1-.57 0-1-.45-1-1s.43-1 1-1c.54 0 1 .45 1 1zm6.18-4.76c0 .56-.45 1-1 1-.56 0-1-.44-1-1 0-.55.44-1 1-1 .55 0 1 .45 1 1zm7.2-3.02c0 .55-.44 1-1 1-.55 0-1-.45-1-1s.45-1 1-1c.56 0 1 .45 1 1zm7.76-1.06c0 .55-.45 1-1 1-.56 0-1-.45-1-1 0-.56.44-1 1-1 .55 0 1 .44 1 1zm7.88 0c0 .55-.45 1-1 1-.56 0-1-.45-1-1 0-.56.44-1 1-1 .55 0 1 .44 1 1zm7.87 0c0 .55-.44 1-1 1-.55 0-1-.45-1-1 0-.56.45-1 1-1 .56 0 1 .44 1 1zm7.88 0c0 .55-.44 1-1 1-.55 0-1-.45-1-1 0-.56.45-1 1-1 .56 0 1 .44 1 1zm7.88 0c0 .55-.45 1-1 1s-1-.45-1-1c0-.56.45-1 1-1s1 .44 1 1zm7.88 0c0 .55-.44 1-1 1-.54 0-1-.45-1-1 0-.56.46-1 1-1 .56 0 1 .44 1 1zm7.9 0c0 .55-.46 1-1 1-.56 0-1-.45-1-1 0-.56.44-1 1-1 .54 0 1 .44 1 1zm7.87 0c0 .55-.45 1-1 1s-1-.45-1-1c0-.56.45-1 1-1s1 .44 1 1zm7.88 0c0 .55-.45 1-1 1s-1-.45-1-1c0-.56.45-1 1-1s1 .44 1 1zm7.88 0c0 .55-.45 1-1 1-.56 0-1-.45-1-1 0-.56.44-1 1-1 .55 0 1 .44 1 1zm7.88 0c0 .55-.44 1-1 1-.55 0-1-.45-1-1 0-.56.45-1 1-1 .56 0 1 .44 1 1zm7.88 0c0 .55-.44 1-1 1-.55 0-1-.45-1-1 0-.56.45-1 1-1 .56 0 1 .44 1 1zm7.88 0c0 .55-.44 1-1 1-.55 0-1-.45-1-1 0-.56.45-1 1-1 .56 0 1 .44 1 1zm7.88 0c0 .55-.45 1-1 1s-1-.45-1-1c0-.56.45-1 1-1s1 .44 1 1zm7.88 0c0 .55-.45 1-1 1s-1-.45-1-1c0-.56.45-1 1-1s1 .44 1 1zm7.88 0c0 .55-.45 1-1 1s-1-.45-1-1c0-.56.45-1 1-1s1 .44 1 1zm7.88 0c0 .55-.45 1-1 1s-1-.45-1-1c0-.56.45-1 1-1s1 .44 1 1zm7.88 0c0 .55-.45 1-1 1-.56 0-1-.45-1-1 0-.56.44-1 1-1 .55 0 1 .44 1 1zm7.88 0c0 .55-.45 1-1 1-.56 0-1-.45-1-1 0-.56.44-1 1-1 .55 0 1 .44 1 1zm7.87 0c0 .55-.43 1-1 1-.54 0-1-.45-1-1 0-.56.46-1 1-1 .57 0 1 .44 1 1zm7.9 0c0 .55-.45 1-1 1-.56 0-1-.45-1-1 0-.56.44-1 1-1 .55 0 1 .44 1 1zm7.87 0c0 .55-.45 1-1 1s-1-.45-1-1c0-.56.45-1 1-1s1 .44 1 1zm7.88 0c0 .55-.45 1-1 1s-1-.45-1-1c0-.56.45-1 1-1s1 .44 1 1zm7.88 0c0 .55-.45 1-1 1s-1-.45-1-1c0-.56.45-1 1-1s1 .44 1 1zm7.88 0c0 .55-.44 1-1 1-.54 0-1-.45-1-1 0-.56.46-1 1-1 .56 0 1 .44 1 1zm7.9 0c0 .55-.46 1-1 1-.57 0-1-.45-1-1 0-.56.43-1 1-1 .54 0 1 .44 1 1zm7.87 0c0 .55-.45 1-1 1-.56 0-1-.45-1-1 0-.56.44-1 1-1 .55 0 1 .44 1 1zm7.87 0c0 .55-.44 1-1 1-.55 0-1-.45-1-1 0-.56.45-1 1-1 .56 0 1 .44 1 1zm7.88 0c0 .55-.44 1-1 1-.55 0-1-.45-1-1 0-.56.45-1 1-1 .56 0 1 .44 1 1zm7.88 0c0 .55-.45 1-1 1s-1-.45-1-1c0-.56.45-1 1-1s1 .44 1 1zm7.88 0c0 .55-.45 1-1 1s-1-.45-1-1c0-.56.45-1 1-1s1 .44 1 1zm7.88 0c0 .55-.45 1-1 1s-1-.45-1-1c0-.56.45-1 1-1s1 .44 1 1zm7.88 0c0 .55-.45 1-1 1s-1-.45-1-1c0-.56.45-1 1-1s1 .44 1 1zm7.88 0c0 .55-.45 1-1 1-.56 0-1-.45-1-1 0-.56.44-1 1-1 .55 0 1 .44 1 1zm7.74 1.1c0 .56-.45 1-1 1s-1-.44-1-1c0-.54.45-1 1-1s1 .46 1 1zm7.23 2.96c0 .55-.46 1-1 1-.56 0-1-.45-1-1 0-.56.44-1 1-1 .54 0 1 .44 1 1zm6.17 4.8c0 .54-.45 1-1 1s-1-.46-1-1c0-.57.45-1 1-1s1 .43 1 1zm4.76 6.18c0 .55-.45 1-1 1s-1-.45-1-1c0-.56.45-1 1-1s1 .44 1 1zm3.02 7.2c0 .56-.44 1-1 1-.55 0-1-.44-1-1 0-.55.45-1 1-1 .56 0 1 .45 1 1zm1.07 7.76c0 .55-.45 1-1 1-.56 0-1-.45-1-1 0-.56.44-1 1-1 .55 0 1 .44 1 1zm0 7.93c0 .55-.45 1-1 1-.56 0-1-.45-1-1s.44-1 1-1c.55 0 1 .45 1 1zm0 7.93c0 .56-.45 1-1 1-.56 0-1-.44-1-1 0-.55.44-1 1-1 .55 0 1 .45 1 1zm0 7.94c0 .55-.45 1-1 1-.56 0-1-.45-1-1 0-.56.44-1 1-1 .55 0 1 .44 1 1zm0 7.93c0 .55-.45 1-1 1-.56 0-1-.45-1-1s.44-1 1-1c.55 0 1 .45 1 1zm0 7.93c0 .55-.45 1-1 1-.56 0-1-.45-1-1s.44-1 1-1c.55 0 1 .45 1 1zm0 7.93c0 .57-.45 1-1 1-.56 0-1-.43-1-1 0-.54.44-1 1-1 .55 0 1 .46 1 1zm0 7.95c0 .55-.45 1-1 1-.56 0-1-.45-1-1s.44-1 1-1c.55 0 1 .45 1 1zm0 7.93c0 .55-.45 1-1 1-.56 0-1-.45-1-1s.44-1 1-1c.55 0 1 .45 1 1zm0 7.93c0 .57-.45 1-1 1-.56 0-1-.43-1-1 0-.54.44-1 1-1 .55 0 1 .46 1 1zm0 7.95c0 .55-.45 1-1 1-.56 0-1-.45-1-1 0-.56.44-1 1-1 .55 0 1 .44 1 1zm0 7.93c0 .55-.45 1-1 1-.56 0-1-.45-1-1s.44-1 1-1c.55 0 1 .45 1 1zm0 7.93c0 .56-.45 1-1 1-.56 0-1-.44-1-1 0-.54.44-1 1-1 .55 0 1 .46 1 1zm0 7.94c0 .56-.45 1-1 1-.56 0-1-.44-1-1 0-.55.44-1 1-1 .55 0 1 .45 1 1zm0 7.94c0 .55-.45 1-1 1-.56 0-1-.45-1-1s.44-1 1-1c.55 0 1 .45 1 1zm0 7.93c0 .56-.45 1-1 1-.56 0-1-.44-1-1 0-.54.44-1 1-1 .55 0 1 .46 1 1zm0 7.94c0 .56-.45 1-1 1-.56 0-1-.44-1-1 0-.55.44-1 1-1 .55 0 1 .45 1 1zm0 7.94c0 .55-.45 1-1 1-.56 0-1-.45-1-1 0-.56.44-1 1-1 .55 0 1 .44 1 1zm0 7.93c0 .56-.45 1-1 1-.56 0-1-.44-1-1 0-.54.44-1 1-1 .55 0 1 .46 1 1zm0 7.94c0 .55-.45 1-1 1-.56 0-1-.45-1-1s.44-1 1-1c.55 0 1 .45 1 1zm0 7.94c0 .55-.45 1-1 1-.56 0-1-.45-1-1 0-.56.44-1 1-1 .55 0 1 .44 1 1zm0 7.93c0 .56-.45 1-1 1-.56 0-1-.44-1-1 0-.54.44-1 1-1 .55 0 1 .46 1 1zm0 7.94c0 .55-.45 1-1 1-.56 0-1-.45-1-1s.44-1 1-1c.55 0 1 .45 1 1zm0 7.93c0 .56-.45 1-1 1-.56 0-1-.44-1-1 0-.55.44-1 1-1 .55 0 1 .45 1 1zm0 7.94c0 .56-.45 1-1 1-.56 0-1-.44-1-1 0-.55.44-1 1-1 .55 0 1 .45 1 1zm0 7.94c0 .55-.45 1-1 1-.56 0-1-.45-1-1s.44-1 1-1c.55 0 1 .45 1 1zm0 7.93c0 .55-.45 1-1 1-.56 0-1-.45-1-1s.44-1 1-1c.55 0 1 .45 1 1zm0 7.94c0 .56-.45 1-1 1-.56 0-1-.44-1-1 0-.55.44-1 1-1 .55 0 1 .45 1 1zm0 7.94c0 .55-.45 1-1 1-.56 0-1-.45-1-1s.44-1 1-1c.55 0 1 .45 1 1zm0 7.93c0 .55-.45 1-1 1-.56 0-1-.45-1-1s.44-1 1-1c.55 0 1 .45 1 1zm0 7.93c0 .56-.45 1-1 1-.56 0-1-.44-1-1 0-.55.44-1 1-1 .55 0 1 .45 1 1zm0 7.94c0 .55-.45 1-1 1-.56 0-1-.45-1-1 0-.56.44-1 1-1 .55 0 1 .44 1 1zm0 7.93c0 .55-.45 1-1 1-.56 0-1-.45-1-1s.44-1 1-1c.55 0 1 .45 1 1zm0 7.93c0 .55-.45 1-1 1-.56 0-1-.45-1-1s.44-1 1-1c.55 0 1 .45 1 1zm0 7.94c0 .55-.45 1-1 1-.56 0-1-.45-1-1 0-.56.44-1 1-1 .55 0 1 .44 1 1zm0 7.93c0 .55-.45 1-1 1-.56 0-1-.45-1-1s.44-1 1-1c.55 0 1 .45 1 1zm0 7.93c0 .55-.45 1-1 1-.56 0-1-.45-1-1s.44-1 1-1c.55 0 1 .45 1 1zm0 7.93c0 .56-.45 1-1 1-.56 0-1-.44-1-1 0-.55.44-1 1-1 .55 0 1 .45 1 1zm0 7.94c0 .55-.45 1-1 1-.56 0-1-.45-1-1 0-.56.44-1 1-1 .55 0 1 .44 1 1zm0 7.93c0 .55-.45 1-1 1-.56 0-1-.45-1-1s.44-1 1-1c.55 0 1 .45 1 1zm-1.12 7.74c0 .55-.44 1-1 1-.55 0-1-.45-1-1s.45-1 1-1c.56 0 1 .45 1 1zm-2.94 7.23c0 .56-.45 1-1 1s-1-.44-1-1c0-.55.45-1 1-1s1 .45 1 1zm-4.8 6.18c0 .56-.44 1-1 1-.54 0-1-.44-1-1 0-.55.46-1 1-1 .56 0 1 .45 1 1zm-6.18 4.76c0 .57-.45 1-1 1s-1-.43-1-1c0-.54.45-1 1-1s1 .46 1 1zm-7.2 3.04c0 .55-.46 1-1 1-.56 0-1-.45-1-1 0-.56.44-1 1-1 .54 0 1 .44 1 1zM781.6 800c0 .55-.45 1-1 1-.56 0-1-.45-1-1s.44-1 1-1c.55 0 1 .45 1 1zm-7.88 0c0 .55-.45 1-1 1s-1-.45-1-1 .45-1 1-1 1 .45 1 1zm-7.88 0c0 .55-.45 1-1 1s-1-.45-1-1 .45-1 1-1 1 .45 1 1zm-7.88 0c0 .55-.45 1-1 1s-1-.45-1-1 .45-1 1-1 1 .45 1 1zm-7.88 0c0 .55-.45 1-1 1s-1-.45-1-1 .45-1 1-1 1 .45 1 1zm-7.88 0c0 .55-.44 1-1 1-.55 0-1-.45-1-1s.45-1 1-1c.56 0 1 .45 1 1zm-7.88 0c0 .55-.44 1-1 1-.55 0-1-.45-1-1s.45-1 1-1c.56 0 1 .45 1 1zm-7.87 0c0 .55-.45 1-1 1-.56 0-1-.45-1-1s.44-1 1-1c.55 0 1 .45 1 1zm-7.88 0c0 .55-.46 1-1 1-.57 0-1-.45-1-1s.43-1 1-1c.54 0 1 .45 1 1zm-7.9 0c0 .55-.44 1-1 1-.54 0-1-.45-1-1s.46-1 1-1c.56 0 1 .45 1 1zm-7.87 0c0 .55-.45 1-1 1s-1-.45-1-1 .45-1 1-1 1 .45 1 1zm-7.88 0c0 .55-.45 1-1 1s-1-.45-1-1 .45-1 1-1 1 .45 1 1zm-7.88 0c0 .55-.45 1-1 1s-1-.45-1-1 .45-1 1-1 1 .45 1 1zm-7.88 0c0 .55-.45 1-1 1-.56 0-1-.45-1-1s.44-1 1-1c.55 0 1 .45 1 1zm-7.9 0c0 .55-.43 1-1 1-.54 0-1-.45-1-1s.46-1 1-1c.57 0 1 .45 1 1zm-7.86 0c0 .55-.45 1-1 1-.56 0-1-.45-1-1s.44-1 1-1c.55 0 1 .45 1 1zm-7.88 0c0 .55-.45 1-1 1-.56 0-1-.45-1-1s.44-1 1-1c.55 0 1 .45 1 1zm-7.88 0c0 .55-.45 1-1 1s-1-.45-1-1 .45-1 1-1 1 .45 1 1zm-7.88 0c0 .55-.45 1-1 1s-1-.45-1-1 .45-1 1-1 1 .45 1 1zm-7.88 0c0 .55-.45 1-1 1s-1-.45-1-1 .45-1 1-1 1 .45 1 1zm-7.88 0c0 .55-.45 1-1 1s-1-.45-1-1 .45-1 1-1 1 .45 1 1zm-7.88 0c0 .55-.44 1-1 1-.55 0-1-.45-1-1s.45-1 1-1c.56 0 1 .45 1 1zm-7.88 0c0 .55-.44 1-1 1-.55 0-1-.45-1-1s.45-1 1-1c.56 0 1 .45 1 1zm-7.87 0c0 .55-.44 1-1 1-.55 0-1-.45-1-1s.45-1 1-1c.56 0 1 .45 1 1zm-7.87 0c0 .55-.45 1-1 1-.56 0-1-.45-1-1s.44-1 1-1c.55 0 1 .45 1 1zm-7.88 0c0 .55-.45 1-1 1s-1-.45-1-1 .45-1 1-1 1 .45 1 1zm-7.88 0c0 .55-.45 1-1 1s-1-.45-1-1 .45-1 1-1 1 .45 1 1zm-7.88 0c0 .55-.46 1-1 1-.56 0-1-.45-1-1s.44-1 1-1c.54 0 1 .45 1 1zm-7.9 0c0 .55-.44 1-1 1-.54 0-1-.45-1-1s.46-1 1-1c.56 0 1 .45 1 1zm-7.87 0c0 .55-.45 1-1 1s-1-.45-1-1 .45-1 1-1 1 .45 1 1zm-7.88 0c0 .55-.44 1-1 1-.55 0-1-.45-1-1s.45-1 1-1c.56 0 1 .45 1 1zm-7.88 0c0 .55-.44 1-1 1-.55 0-1-.45-1-1s.45-1 1-1c.56 0 1 .45 1 1zm-7.87 0c0 .55-.45 1-1 1-.56 0-1-.45-1-1s.44-1 1-1c.55 0 1 .45 1 1zm-7.88 0c0 .55-.45 1-1 1-.56 0-1-.45-1-1s.44-1 1-1c.55 0 1 .45 1 1zm-7.74-1.1c0 .54-.45 1-1 1-.56 0-1-.46-1-1 0-.57.44-1 1-1 .55 0 1 .43 1 1zm-7.24-2.96c0 .55-.45 1-1 1s-1-.45-1-1 .45-1 1-1 1 .45 1 1zm-6.18-4.8c0 .56-.45 1-1 1s-1-.44-1-1c0-.54.45-1 1-1s1 .46 1 1zm-4.76-6.18c0 .55-.44 1-1 1-.55 0-1-.45-1-1s.45-1 1-1c.56 0 1 .45 1 1zm-3.02-7.2c0 .54-.45 1-1 1s-1-.46-1-1c0-.56.45-1 1-1s1 .44 1 1zm-1.06-7.76c0 .55-.45 1-1 1-.56 0-1-.45-1-1s.44-1 1-1c.55 0 1 .45 1 1zm0-7.93c0 .55-.45 1-1 1-.56 0-1-.45-1-1 0-.56.44-1 1-1 .55 0 1 .44 1 1zm0-7.94c0 .56-.45 1-1 1-.56 0-1-.44-1-1 0-.55.44-1 1-1 .55 0 1 .45 1 1zm0-7.93c0 .55-.45 1-1 1-.56 0-1-.45-1-1s.44-1 1-1c.55 0 1 .45 1 1zm0-7.93c0 .55-.45 1-1 1-.56 0-1-.45-1-1s.44-1 1-1c.55 0 1 .45 1 1zm0-7.93c0 .55-.45 1-1 1-.56 0-1-.45-1-1 0-.56.44-1 1-1 .55 0 1 .44 1 1zm0-7.94c0 .55-.45 1-1 1-.56 0-1-.45-1-1s.44-1 1-1c.55 0 1 .45 1 1zm0-7.93c0 .55-.45 1-1 1-.56 0-1-.45-1-1s.44-1 1-1c.55 0 1 .45 1 1zm0-7.93c0 .55-.45 1-1 1-.56 0-1-.45-1-1 0-.56.44-1 1-1 .55 0 1 .44 1 1zm0-7.94c0 .56-.45 1-1 1-.56 0-1-.44-1-1 0-.55.44-1 1-1 .55 0 1 .45 1 1zm0-7.93c0 .55-.45 1-1 1-.56 0-1-.45-1-1s.44-1 1-1c.55 0 1 .45 1 1zm0-7.93c0 .55-.45 1-1 1-.56 0-1-.45-1-1s.44-1 1-1c.55 0 1 .45 1 1zm0-7.93c0 .56-.45 1-1 1-.56 0-1-.44-1-1 0-.55.44-1 1-1 .55 0 1 .45 1 1zm0-7.93c0 .55-.45 1-1 1-.56 0-1-.45-1-1s.44-1 1-1c.55 0 1 .45 1 1zm0-7.93c0 .55-.45 1-1 1-.56 0-1-.45-1-1s.44-1 1-1c.55 0 1 .45 1 1zm0-7.93c0 .56-.45 1-1 1-.56 0-1-.44-1-1 0-.55.44-1 1-1 .55 0 1 .45 1 1zm0-7.93c0 .56-.45 1-1 1-.56 0-1-.44-1-1 0-.55.44-1 1-1 .55 0 1 .45 1 1zm0-7.93c0 .55-.45 1-1 1-.56 0-1-.45-1-1s.44-1 1-1c.55 0 1 .45 1 1zm0-7.93c0 .56-.45 1-1 1-.56 0-1-.44-1-1 0-.54.44-1 1-1 .55 0 1 .46 1 1zm0-7.92c0 .55-.45 1-1 1-.56 0-1-.45-1-1 0-.56.44-1 1-1 .55 0 1 .44 1 1zm0-7.94c0 .55-.45 1-1 1-.56 0-1-.45-1-1s.44-1 1-1c.55 0 1 .45 1 1zm0-7.93c0 .56-.45 1-1 1-.56 0-1-.44-1-1 0-.54.44-1 1-1 .55 0 1 .46 1 1zm0-7.92c0 .55-.45 1-1 1-.56 0-1-.45-1-1 0-.56.44-1 1-1 .55 0 1 .44 1 1zm0-7.94c0 .56-.45 1-1 1-.56 0-1-.44-1-1 0-.55.44-1 1-1 .55 0 1 .45 1 1zm0-7.93c0 .56-.45 1-1 1-.56 0-1-.44-1-1 0-.54.44-1 1-1 .55 0 1 .46 1 1zm0-7.92c0 .55-.45 1-1 1-.56 0-1-.45-1-1s.44-1 1-1c.55 0 1 .45 1 1zm0-7.94c0 .56-.45 1-1 1-.56 0-1-.44-1-1 0-.55.44-1 1-1 .55 0 1 .45 1 1zm0-7.93c0 .56-.45 1-1 1-.56 0-1-.44-1-1 0-.54.44-1 1-1 .55 0 1 .46 1 1zm0-7.92c0 .55-.45 1-1 1-.56 0-1-.45-1-1s.44-1 1-1c.55 0 1 .45 1 1zm0-7.93c0 .55-.45 1-1 1-.56 0-1-.45-1-1 0-.56.44-1 1-1 .55 0 1 .44 1 1zm0-7.94c0 .57-.45 1-1 1-.56 0-1-.43-1-1 0-.54.44-1 1-1 .55 0 1 .46 1 1zm0-7.92c0 .55-.45 1-1 1-.56 0-1-.45-1-1s.44-1 1-1c.55 0 1 .45 1 1zm0-7.93c0 .55-.45 1-1 1-.56 0-1-.45-1-1s.44-1 1-1c.55 0 1 .45 1 1zm0-7.94c0 .57-.45 1-1 1-.56 0-1-.43-1-1 0-.54.44-1 1-1 .55 0 1 .46 1 1zm0-7.92c0 .55-.45 1-1 1-.56 0-1-.45-1-1s.44-1 1-1c.55 0 1 .45 1 1zm0-7.93c0 .55-.45 1-1 1-.56 0-1-.45-1-1s.44-1 1-1c.55 0 1 .45 1 1zm0-7.93c0 .55-.45 1-1 1-.56 0-1-.45-1-1 0-.56.44-1 1-1 .55 0 1 .44 1 1zm0-7.94c0 .56-.45 1-1 1-.56 0-1-.44-1-1 0-.55.44-1 1-1 .55 0 1 .45 1 1zm0-7.93c0 .55-.45 1-1 1-.56 0-1-.45-1-1s.44-1 1-1c.55 0 1 .45 1 1z" fill="#474747"/><use xlink:href="#n" transform="matrix(1,0,0,1,490.6172839506173,769.9999999999998) translate(66.05 12.799999999999999)"/><use xlink:href="#o" transform="matrix(1,0,0,1,490.6172839506173,769.9999999999998) translate(125 12.799999999999999)"/><use xlink:href="#p" transform="matrix(1,0,0,1,490.6172839506173,769.9999999999998) translate(172 12.799999999999999)"/><use xlink:href="#q" transform="matrix(1,0,0,1,490.6172839506173,769.9999999999998) translate(192 12.799999999999999)"/><use xlink:href="#u" transform="matrix(1,0,0,1,490.6172839506173,769.9999999999998) translate(241.95 12.799999999999999)"/><path d="M579.06 471.1l-5.05 3.4-2.46-5.54c-4.02-8.66-12.16-13.9-21.73-13.9h-.1c-13.18 0-23.8 10.67-23.8 23.75l.1 4.43-3.7 1.07c-6.07 1.74-11.02 9.5-11.02 14.75v1.9c0 6.4 7.83 13.8 17.82 13.8h67.36c10 0 17.82-7.4 17.82-13.8v-1.9c0-6.45-7.2-14.87-15.65-15.64l-4.53-.35-.1-4.48c-.1-1.9-.63-3.52-1.66-5.07-2.98-4.36-8.96-5.44-13.28-2.45z" fill="#19486f"/><path d="M579.06 466.67l-5.05 3.4-2.56-5.5c-3.92-8.7-12.06-13.95-21.63-13.95h-.1c-13.18 0-23.8 10.62-23.8 23.75l.1 4.42-3.7 1.06c-6.07 1.74-11.02 9.5-11.02 14.75v1.92c0 6.38 7.83 13.8 17.82 13.8h67.36c10 0 17.82-7.42 17.82-13.8v-1.9c0-6.46-7.2-14.87-15.65-15.6l-4.53-.4-.1-4.5c-.1-1.9-.63-3.5-1.66-5.06-2.98-4.36-8.96-5.43-13.28-2.45z" fill="#2e73b8"/><path d="M517.57 537.27h87.6v33.34h-87.6v-33.33z" fill="#19486f"/><path d="M517.57 532.76h87.6v33.33h-87.6v-33.34z" fill="#2e73b8"/><path d="M559.1 510.3h4.54v39.1h-4.53v-39.1z" fill="#2e73b8"/><path d="M559.1 495.17h4.54v15.16h-4.53v-15.16z" fill="#fff"/><path d="M561.37 486.64l-6.8 9.9h13.6l-6.8-9.9zM535.42 541.78h.03c7.3 0 7.3 0 7.3 7.25v.03c0 7.25 0 7.25-7.3 7.25h-.03c-7.3 0-7.3 0-7.3-7.24v-.03c0-7.25 0-7.25 7.3-7.25zM570.7 556.3h-18.9l9.45-14.52 9.44 14.52zM579.76 541.78h14.6v14.53h-14.6V541.8z" fill="#fff"/><use xlink:href="#s" transform="matrix(1,0,0,1,511.28395061728395,570.6172839506173) translate(7.075000000000003 14.4)"/><use xlink:href="#t" transform="matrix(1,0,0,1,511.28395061728395,570.6172839506173) translate(54.025000000000006 14.4)"/><path d="M30.62 460.62c0-16.57 13.43-30 30-30h260c16.57 0 30 13.43 30 30V770c0 16.57-13.43 30-30 30h-260c-16.57 0-30-13.43-30-30z" fill="none"/><path d="M31.62 460.62c0 .55-.45 1-1 1-.56 0-1-.45-1-1 0-.56.44-1 1-1 .55 0 1 .44 1 1zm1.1-7.74c0 .55-.44 1-1 1-.54 0-1-.45-1-1 0-.56.46-1 1-1 .56 0 1 .44 1 1zm2.96-7.24c0 .55-.45 1-1 1-.56 0-1-.45-1-1s.44-1 1-1c.55 0 1 .45 1 1zm4.8-6.18c0 .55-.46 1-1 1-.57 0-1-.45-1-1s.43-1 1-1c.54 0 1 .45 1 1zm6.18-4.76c0 .56-.45 1-1 1-.56 0-1-.44-1-1 0-.55.44-1 1-1 .55 0 1 .45 1 1zm7.2-3.02c0 .55-.44 1-1 1-.55 0-1-.45-1-1s.45-1 1-1c.56 0 1 .45 1 1zm7.76-1.06c0 .55-.45 1-1 1-.56 0-1-.45-1-1 0-.56.44-1 1-1 .55 0 1 .44 1 1zm7.88 0c0 .55-.45 1-1 1-.56 0-1-.45-1-1 0-.56.44-1 1-1 .55 0 1 .44 1 1zm7.87 0c0 .55-.44 1-1 1-.55 0-1-.45-1-1 0-.56.45-1 1-1 .56 0 1 .44 1 1zm7.88 0c0 .55-.44 1-1 1-.55 0-1-.45-1-1 0-.56.45-1 1-1 .56 0 1 .44 1 1zm7.88 0c0 .55-.45 1-1 1s-1-.45-1-1c0-.56.45-1 1-1s1 .44 1 1zm7.88 0c0 .55-.44 1-1 1-.54 0-1-.45-1-1 0-.56.46-1 1-1 .56 0 1 .44 1 1zm7.9 0c0 .55-.46 1-1 1-.56 0-1-.45-1-1 0-.56.44-1 1-1 .54 0 1 .44 1 1zm7.87 0c0 .55-.45 1-1 1s-1-.45-1-1c0-.56.45-1 1-1s1 .44 1 1zm7.88 0c0 .55-.45 1-1 1s-1-.45-1-1c0-.56.45-1 1-1s1 .44 1 1zm7.88 0c0 .55-.45 1-1 1-.56 0-1-.45-1-1 0-.56.44-1 1-1 .55 0 1 .44 1 1zm7.88 0c0 .55-.44 1-1 1-.55 0-1-.45-1-1 0-.56.45-1 1-1 .56 0 1 .44 1 1zm7.88 0c0 .55-.44 1-1 1-.55 0-1-.45-1-1 0-.56.45-1 1-1 .56 0 1 .44 1 1zm7.88 0c0 .55-.44 1-1 1-.55 0-1-.45-1-1 0-.56.45-1 1-1 .56 0 1 .44 1 1zm7.88 0c0 .55-.45 1-1 1s-1-.45-1-1c0-.56.45-1 1-1s1 .44 1 1zm7.88 0c0 .55-.45 1-1 1s-1-.45-1-1c0-.56.45-1 1-1s1 .44 1 1zm7.88 0c0 .55-.45 1-1 1s-1-.45-1-1c0-.56.45-1 1-1s1 .44 1 1zm7.88 0c0 .55-.45 1-1 1s-1-.45-1-1c0-.56.45-1 1-1s1 .44 1 1zm7.88 0c0 .55-.45 1-1 1-.56 0-1-.45-1-1 0-.56.44-1 1-1 .55 0 1 .44 1 1zm7.88 0c0 .55-.45 1-1 1-.56 0-1-.45-1-1 0-.56.44-1 1-1 .55 0 1 .44 1 1zm7.87 0c0 .55-.43 1-1 1-.54 0-1-.45-1-1 0-.56.46-1 1-1 .57 0 1 .44 1 1zm7.9 0c0 .55-.45 1-1 1-.56 0-1-.45-1-1 0-.56.44-1 1-1 .55 0 1 .44 1 1zm7.87 0c0 .55-.45 1-1 1s-1-.45-1-1c0-.56.45-1 1-1s1 .44 1 1zm7.88 0c0 .55-.45 1-1 1s-1-.45-1-1c0-.56.45-1 1-1s1 .44 1 1zm7.88 0c0 .55-.45 1-1 1s-1-.45-1-1c0-.56.45-1 1-1s1 .44 1 1zm7.88 0c0 .55-.44 1-1 1-.54 0-1-.45-1-1 0-.56.46-1 1-1 .56 0 1 .44 1 1zm7.9 0c0 .55-.46 1-1 1-.57 0-1-.45-1-1 0-.56.43-1 1-1 .54 0 1 .44 1 1zm7.87 0c0 .55-.45 1-1 1-.56 0-1-.45-1-1 0-.56.44-1 1-1 .55 0 1 .44 1 1zm7.87 0c0 .55-.44 1-1 1-.55 0-1-.45-1-1 0-.56.45-1 1-1 .56 0 1 .44 1 1zm7.88 0c0 .55-.44 1-1 1-.55 0-1-.45-1-1 0-.56.45-1 1-1 .56 0 1 .44 1 1zm7.88 0c0 .55-.45 1-1 1s-1-.45-1-1c0-.56.45-1 1-1s1 .44 1 1zm7.88 0c0 .55-.45 1-1 1s-1-.45-1-1c0-.56.45-1 1-1s1 .44 1 1zm7.88 0c0 .55-.45 1-1 1s-1-.45-1-1c0-.56.45-1 1-1s1 .44 1 1zm7.88 0c0 .55-.45 1-1 1s-1-.45-1-1c0-.56.45-1 1-1s1 .44 1 1zm7.88 0c0 .55-.45 1-1 1-.56 0-1-.45-1-1 0-.56.44-1 1-1 .55 0 1 .44 1 1zm7.74 1.1c0 .56-.45 1-1 1s-1-.44-1-1c0-.54.45-1 1-1s1 .46 1 1zm7.23 2.96c0 .55-.46 1-1 1-.56 0-1-.45-1-1 0-.56.44-1 1-1 .54 0 1 .44 1 1zm6.17 4.8c0 .54-.45 1-1 1s-1-.46-1-1c0-.57.45-1 1-1s1 .43 1 1zm4.76 6.18c0 .55-.45 1-1 1s-1-.45-1-1c0-.56.45-1 1-1s1 .44 1 1zm3.02 7.2c0 .56-.44 1-1 1-.55 0-1-.44-1-1 0-.55.45-1 1-1 .56 0 1 .45 1 1zm1.07 7.76c0 .55-.45 1-1 1-.56 0-1-.45-1-1 0-.56.44-1 1-1 .55 0 1 .44 1 1zm0 7.93c0 .55-.45 1-1 1-.56 0-1-.45-1-1s.44-1 1-1c.55 0 1 .45 1 1zm0 7.93c0 .56-.45 1-1 1-.56 0-1-.44-1-1 0-.55.44-1 1-1 .55 0 1 .45 1 1zm0 7.94c0 .55-.45 1-1 1-.56 0-1-.45-1-1 0-.56.44-1 1-1 .55 0 1 .44 1 1zm0 7.93c0 .55-.45 1-1 1-.56 0-1-.45-1-1s.44-1 1-1c.55 0 1 .45 1 1zm0 7.93c0 .55-.45 1-1 1-.56 0-1-.45-1-1s.44-1 1-1c.55 0 1 .45 1 1zm0 7.93c0 .57-.45 1-1 1-.56 0-1-.43-1-1 0-.54.44-1 1-1 .55 0 1 .46 1 1zm0 7.95c0 .55-.45 1-1 1-.56 0-1-.45-1-1s.44-1 1-1c.55 0 1 .45 1 1zm0 7.93c0 .55-.45 1-1 1-.56 0-1-.45-1-1s.44-1 1-1c.55 0 1 .45 1 1zm0 7.93c0 .57-.45 1-1 1-.56 0-1-.43-1-1 0-.54.44-1 1-1 .55 0 1 .46 1 1zm0 7.95c0 .55-.45 1-1 1-.56 0-1-.45-1-1 0-.56.44-1 1-1 .55 0 1 .44 1 1zm0 7.93c0 .55-.45 1-1 1-.56 0-1-.45-1-1s.44-1 1-1c.55 0 1 .45 1 1zm0 7.93c0 .56-.45 1-1 1-.56 0-1-.44-1-1 0-.54.44-1 1-1 .55 0 1 .46 1 1zm0 7.94c0 .56-.45 1-1 1-.56 0-1-.44-1-1 0-.55.44-1 1-1 .55 0 1 .45 1 1zm0 7.94c0 .55-.45 1-1 1-.56 0-1-.45-1-1s.44-1 1-1c.55 0 1 .45 1 1zm0 7.93c0 .56-.45 1-1 1-.56 0-1-.44-1-1 0-.54.44-1 1-1 .55 0 1 .46 1 1zm0 7.94c0 .56-.45 1-1 1-.56 0-1-.44-1-1 0-.55.44-1 1-1 .55 0 1 .45 1 1zm0 7.94c0 .55-.45 1-1 1-.56 0-1-.45-1-1 0-.56.44-1 1-1 .55 0 1 .44 1 1zm0 7.93c0 .56-.45 1-1 1-.56 0-1-.44-1-1 0-.54.44-1 1-1 .55 0 1 .46 1 1zm0 7.94c0 .55-.45 1-1 1-.56 0-1-.45-1-1s.44-1 1-1c.55 0 1 .45 1 1zm0 7.94c0 .55-.45 1-1 1-.56 0-1-.45-1-1 0-.56.44-1 1-1 .55 0 1 .44 1 1zm0 7.93c0 .56-.45 1-1 1-.56 0-1-.44-1-1 0-.54.44-1 1-1 .55 0 1 .46 1 1zm0 7.94c0 .55-.45 1-1 1-.56 0-1-.45-1-1s.44-1 1-1c.55 0 1 .45 1 1zm0 7.93c0 .56-.45 1-1 1-.56 0-1-.44-1-1 0-.55.44-1 1-1 .55 0 1 .45 1 1zm0 7.94c0 .56-.45 1-1 1-.56 0-1-.44-1-1 0-.55.44-1 1-1 .55 0 1 .45 1 1zm0 7.94c0 .55-.45 1-1 1-.56 0-1-.45-1-1s.44-1 1-1c.55 0 1 .45 1 1zm0 7.93c0 .55-.45 1-1 1-.56 0-1-.45-1-1s.44-1 1-1c.55 0 1 .45 1 1zm0 7.94c0 .56-.45 1-1 1-.56 0-1-.44-1-1 0-.55.44-1 1-1 .55 0 1 .45 1 1zm0 7.94c0 .55-.45 1-1 1-.56 0-1-.45-1-1s.44-1 1-1c.55 0 1 .45 1 1zm0 7.93c0 .55-.45 1-1 1-.56 0-1-.45-1-1s.44-1 1-1c.55 0 1 .45 1 1zm0 7.93c0 .56-.45 1-1 1-.56 0-1-.44-1-1 0-.55.44-1 1-1 .55 0 1 .45 1 1zm0 7.94c0 .55-.45 1-1 1-.56 0-1-.45-1-1 0-.56.44-1 1-1 .55 0 1 .44 1 1zm0 7.93c0 .55-.45 1-1 1-.56 0-1-.45-1-1s.44-1 1-1c.55 0 1 .45 1 1zm0 7.93c0 .55-.45 1-1 1-.56 0-1-.45-1-1s.44-1 1-1c.55 0 1 .45 1 1zm0 7.94c0 .55-.45 1-1 1-.56 0-1-.45-1-1 0-.56.44-1 1-1 .55 0 1 .44 1 1zm0 7.93c0 .55-.45 1-1 1-.56 0-1-.45-1-1s.44-1 1-1c.55 0 1 .45 1 1zm0 7.93c0 .55-.45 1-1 1-.56 0-1-.45-1-1s.44-1 1-1c.55 0 1 .45 1 1zm0 7.93c0 .56-.45 1-1 1-.56 0-1-.44-1-1 0-.55.44-1 1-1 .55 0 1 .45 1 1zm0 7.94c0 .55-.45 1-1 1-.56 0-1-.45-1-1 0-.56.44-1 1-1 .55 0 1 .44 1 1zm0 7.93c0 .55-.45 1-1 1-.56 0-1-.45-1-1s.44-1 1-1c.55 0 1 .45 1 1zm-1.12 7.74c0 .55-.44 1-1 1-.55 0-1-.45-1-1s.45-1 1-1c.56 0 1 .45 1 1zm-2.94 7.23c0 .56-.45 1-1 1s-1-.44-1-1c0-.55.45-1 1-1s1 .45 1 1zm-4.8 6.18c0 .56-.44 1-1 1-.54 0-1-.44-1-1 0-.55.46-1 1-1 .56 0 1 .45 1 1zm-6.18 4.76c0 .57-.45 1-1 1s-1-.43-1-1c0-.54.45-1 1-1s1 .46 1 1zm-7.2 3.04c0 .55-.46 1-1 1-.56 0-1-.45-1-1 0-.56.44-1 1-1 .54 0 1 .44 1 1zM321.6 800c0 .55-.45 1-1 1-.56 0-1-.45-1-1s.44-1 1-1c.55 0 1 .45 1 1zm-7.88 0c0 .55-.45 1-1 1s-1-.45-1-1 .45-1 1-1 1 .45 1 1zm-7.88 0c0 .55-.45 1-1 1s-1-.45-1-1 .45-1 1-1 1 .45 1 1zm-7.88 0c0 .55-.45 1-1 1s-1-.45-1-1 .45-1 1-1 1 .45 1 1zm-7.88 0c0 .55-.45 1-1 1s-1-.45-1-1 .45-1 1-1 1 .45 1 1zm-7.88 0c0 .55-.44 1-1 1-.55 0-1-.45-1-1s.45-1 1-1c.56 0 1 .45 1 1zm-7.88 0c0 .55-.44 1-1 1-.55 0-1-.45-1-1s.45-1 1-1c.56 0 1 .45 1 1zm-7.87 0c0 .55-.45 1-1 1-.56 0-1-.45-1-1s.44-1 1-1c.55 0 1 .45 1 1zm-7.88 0c0 .55-.46 1-1 1-.57 0-1-.45-1-1s.43-1 1-1c.54 0 1 .45 1 1zm-7.9 0c0 .55-.44 1-1 1-.54 0-1-.45-1-1s.46-1 1-1c.56 0 1 .45 1 1zm-7.87 0c0 .55-.45 1-1 1s-1-.45-1-1 .45-1 1-1 1 .45 1 1zm-7.88 0c0 .55-.45 1-1 1s-1-.45-1-1 .45-1 1-1 1 .45 1 1zm-7.88 0c0 .55-.45 1-1 1s-1-.45-1-1 .45-1 1-1 1 .45 1 1zm-7.88 0c0 .55-.45 1-1 1-.56 0-1-.45-1-1s.44-1 1-1c.55 0 1 .45 1 1zm-7.9 0c0 .55-.43 1-1 1-.54 0-1-.45-1-1s.46-1 1-1c.57 0 1 .45 1 1zm-7.86 0c0 .55-.45 1-1 1-.56 0-1-.45-1-1s.44-1 1-1c.55 0 1 .45 1 1zm-7.88 0c0 .55-.45 1-1 1-.56 0-1-.45-1-1s.44-1 1-1c.55 0 1 .45 1 1zm-7.88 0c0 .55-.45 1-1 1s-1-.45-1-1 .45-1 1-1 1 .45 1 1zm-7.88 0c0 .55-.45 1-1 1s-1-.45-1-1 .45-1 1-1 1 .45 1 1zm-7.88 0c0 .55-.45 1-1 1s-1-.45-1-1 .45-1 1-1 1 .45 1 1zm-7.88 0c0 .55-.45 1-1 1s-1-.45-1-1 .45-1 1-1 1 .45 1 1zm-7.88 0c0 .55-.44 1-1 1-.55 0-1-.45-1-1s.45-1 1-1c.56 0 1 .45 1 1zm-7.88 0c0 .55-.44 1-1 1-.55 0-1-.45-1-1s.45-1 1-1c.56 0 1 .45 1 1zm-7.87 0c0 .55-.44 1-1 1-.55 0-1-.45-1-1s.45-1 1-1c.56 0 1 .45 1 1zm-7.87 0c0 .55-.45 1-1 1-.56 0-1-.45-1-1s.44-1 1-1c.55 0 1 .45 1 1zm-7.88 0c0 .55-.45 1-1 1s-1-.45-1-1 .45-1 1-1 1 .45 1 1zm-7.88 0c0 .55-.45 1-1 1s-1-.45-1-1 .45-1 1-1 1 .45 1 1zm-7.88 0c0 .55-.46 1-1 1-.56 0-1-.45-1-1s.44-1 1-1c.54 0 1 .45 1 1zm-7.9 0c0 .55-.44 1-1 1-.54 0-1-.45-1-1s.46-1 1-1c.56 0 1 .45 1 1zm-7.87 0c0 .55-.45 1-1 1s-1-.45-1-1 .45-1 1-1 1 .45 1 1zm-7.88 0c0 .55-.44 1-1 1-.55 0-1-.45-1-1s.45-1 1-1c.56 0 1 .45 1 1zm-7.88 0c0 .55-.44 1-1 1-.55 0-1-.45-1-1s.45-1 1-1c.56 0 1 .45 1 1zm-7.87 0c0 .55-.45 1-1 1-.56 0-1-.45-1-1s.44-1 1-1c.55 0 1 .45 1 1zm-7.88 0c0 .55-.45 1-1 1-.56 0-1-.45-1-1s.44-1 1-1c.55 0 1 .45 1 1zm-7.74-1.1c0 .54-.45 1-1 1-.56 0-1-.46-1-1 0-.57.44-1 1-1 .55 0 1 .43 1 1zm-7.24-2.96c0 .55-.45 1-1 1s-1-.45-1-1 .45-1 1-1 1 .45 1 1zm-6.18-4.8c0 .56-.45 1-1 1s-1-.44-1-1c0-.54.45-1 1-1s1 .46 1 1zm-4.76-6.18c0 .55-.44 1-1 1-.55 0-1-.45-1-1s.45-1 1-1c.56 0 1 .45 1 1zm-3.02-7.2c0 .54-.45 1-1 1s-1-.46-1-1c0-.56.45-1 1-1s1 .44 1 1zM31.62 770c0 .55-.45 1-1 1-.56 0-1-.45-1-1s.44-1 1-1c.55 0 1 .45 1 1zm0-7.93c0 .55-.45 1-1 1-.56 0-1-.45-1-1 0-.56.44-1 1-1 .55 0 1 .44 1 1zm0-7.94c0 .56-.45 1-1 1-.56 0-1-.44-1-1 0-.55.44-1 1-1 .55 0 1 .45 1 1zm0-7.93c0 .55-.45 1-1 1-.56 0-1-.45-1-1s.44-1 1-1c.55 0 1 .45 1 1zm0-7.93c0 .55-.45 1-1 1-.56 0-1-.45-1-1s.44-1 1-1c.55 0 1 .45 1 1zm0-7.93c0 .55-.45 1-1 1-.56 0-1-.45-1-1 0-.56.44-1 1-1 .55 0 1 .44 1 1zm0-7.94c0 .55-.45 1-1 1-.56 0-1-.45-1-1s.44-1 1-1c.55 0 1 .45 1 1zm0-7.93c0 .55-.45 1-1 1-.56 0-1-.45-1-1s.44-1 1-1c.55 0 1 .45 1 1zm0-7.93c0 .55-.45 1-1 1-.56 0-1-.45-1-1 0-.56.44-1 1-1 .55 0 1 .44 1 1zm0-7.94c0 .56-.45 1-1 1-.56 0-1-.44-1-1 0-.55.44-1 1-1 .55 0 1 .45 1 1zm0-7.93c0 .55-.45 1-1 1-.56 0-1-.45-1-1s.44-1 1-1c.55 0 1 .45 1 1zm0-7.93c0 .55-.45 1-1 1-.56 0-1-.45-1-1s.44-1 1-1c.55 0 1 .45 1 1zm0-7.93c0 .56-.45 1-1 1-.56 0-1-.44-1-1 0-.55.44-1 1-1 .55 0 1 .45 1 1zm0-7.93c0 .55-.45 1-1 1-.56 0-1-.45-1-1s.44-1 1-1c.55 0 1 .45 1 1zm0-7.93c0 .55-.45 1-1 1-.56 0-1-.45-1-1s.44-1 1-1c.55 0 1 .45 1 1zm0-7.93c0 .56-.45 1-1 1-.56 0-1-.44-1-1 0-.55.44-1 1-1 .55 0 1 .45 1 1zm0-7.93c0 .56-.45 1-1 1-.56 0-1-.44-1-1 0-.55.44-1 1-1 .55 0 1 .45 1 1zm0-7.93c0 .55-.45 1-1 1-.56 0-1-.45-1-1s.44-1 1-1c.55 0 1 .45 1 1zm0-7.93c0 .56-.45 1-1 1-.56 0-1-.44-1-1 0-.54.44-1 1-1 .55 0 1 .46 1 1zm0-7.92c0 .55-.45 1-1 1-.56 0-1-.45-1-1 0-.56.44-1 1-1 .55 0 1 .44 1 1zm0-7.94c0 .55-.45 1-1 1-.56 0-1-.45-1-1s.44-1 1-1c.55 0 1 .45 1 1zm0-7.93c0 .56-.45 1-1 1-.56 0-1-.44-1-1 0-.54.44-1 1-1 .55 0 1 .46 1 1zm0-7.92c0 .55-.45 1-1 1-.56 0-1-.45-1-1 0-.56.44-1 1-1 .55 0 1 .44 1 1zm0-7.94c0 .56-.45 1-1 1-.56 0-1-.44-1-1 0-.55.44-1 1-1 .55 0 1 .45 1 1zm0-7.93c0 .56-.45 1-1 1-.56 0-1-.44-1-1 0-.54.44-1 1-1 .55 0 1 .46 1 1zm0-7.92c0 .55-.45 1-1 1-.56 0-1-.45-1-1s.44-1 1-1c.55 0 1 .45 1 1zm0-7.94c0 .56-.45 1-1 1-.56 0-1-.44-1-1 0-.55.44-1 1-1 .55 0 1 .45 1 1zm0-7.93c0 .56-.45 1-1 1-.56 0-1-.44-1-1 0-.54.44-1 1-1 .55 0 1 .46 1 1zm0-7.92c0 .55-.45 1-1 1-.56 0-1-.45-1-1s.44-1 1-1c.55 0 1 .45 1 1zm0-7.93c0 .55-.45 1-1 1-.56 0-1-.45-1-1 0-.56.44-1 1-1 .55 0 1 .44 1 1zm0-7.94c0 .57-.45 1-1 1-.56 0-1-.43-1-1 0-.54.44-1 1-1 .55 0 1 .46 1 1zm0-7.92c0 .55-.45 1-1 1-.56 0-1-.45-1-1s.44-1 1-1c.55 0 1 .45 1 1zm0-7.93c0 .55-.45 1-1 1-.56 0-1-.45-1-1s.44-1 1-1c.55 0 1 .45 1 1zm0-7.94c0 .57-.45 1-1 1-.56 0-1-.43-1-1 0-.54.44-1 1-1 .55 0 1 .46 1 1zm0-7.92c0 .55-.45 1-1 1-.56 0-1-.45-1-1s.44-1 1-1c.55 0 1 .45 1 1zm0-7.93c0 .55-.45 1-1 1-.56 0-1-.45-1-1s.44-1 1-1c.55 0 1 .45 1 1zm0-7.93c0 .55-.45 1-1 1-.56 0-1-.45-1-1 0-.56.44-1 1-1 .55 0 1 .44 1 1zm0-7.94c0 .56-.45 1-1 1-.56 0-1-.44-1-1 0-.55.44-1 1-1 .55 0 1 .45 1 1zm0-7.93c0 .55-.45 1-1 1-.56 0-1-.45-1-1s.44-1 1-1c.55 0 1 .45 1 1z" fill="#474747"/><use xlink:href="#n" transform="matrix(1,0,0,1,30.617283950617292,769.9999999999998) translate(66.05 12.799999999999999)"/><use xlink:href="#o" transform="matrix(1,0,0,1,30.617283950617292,769.9999999999998) translate(125 12.799999999999999)"/><use xlink:href="#p" transform="matrix(1,0,0,1,30.617283950617292,769.9999999999998) translate(172 12.799999999999999)"/><use xlink:href="#q" transform="matrix(1,0,0,1,30.617283950617292,769.9999999999998) translate(192 12.799999999999999)"/><use xlink:href="#v" transform="matrix(1,0,0,1,30.617283950617292,769.9999999999998) translate(241.95 12.799999999999999)"/><path d="M293.84 652.95c-.88-3.9-2.32-7.06-4.56-10.38l4.4-4.18v-4.1l-15.12-1.88c-3.52-2.16-6.88-3.53-10.96-4.4v-1.94h-15.12v1.94c-4.16.87-7.44 2.24-11.04 4.32l-15.04 1.95v4.1l4.4 4.17c-2.32 3.4-3.68 6.56-4.64 10.45H220v14.33h6.16c.88 3.96 2.32 7.13 4.56 10.52h-4.4v4.03l10.72 10.16 4.4-4.1c3.52 2.08 6.88 3.45 10.96 4.3v5.85h15.2v-5.83c4.08-.86 7.44-2.16 10.96-4.32l4.4 4.18 10.72-10.23v-4.03h-4.4c2.24-3.4 3.68-6.56 4.56-10.45H300v-14.47zm-12.24 17.57c-2.4 4.6-5.84 7.85-10.72 10.16-7.04 3.46-14.72 3.46-21.76 0-4.88-2.3-8.32-5.55-10.72-10.16-3.6-6.77-3.6-13.97 0-20.67 2.4-4.6 5.84-7.85 10.72-10.23 7.04-3.4 14.72-3.4 21.76 0 4.88 2.38 8.32 5.62 10.72 10.23 3.6 6.7 3.6 13.9 0 20.67z" fill="#4b612c"/><path d="M293.84 648.94c-.88-3.95-2.32-7.14-4.56-10.55l4.4-4.1-10.72-10.2-4.4 4.1c-3.52-2.1-6.88-3.4-10.96-4.3v-5.78h-15.12v5.84c-4.16.9-7.44 2.2-11.04 4.33l-4.4-4.2-10.64 10.2 4.32 4.1c-2.24 3.4-3.68 6.52-4.56 10.46H220v14.35h6.16c.88 3.9 2.32 7.07 4.56 10.5l-4.32 4.17 10.64 10.17 4.4-4.18c3.6 2.13 6.88 3.42 11.04 4.33v5.84h15.12v-5.85c4.08-.84 7.44-2.2 10.96-4.34l4.4 4.18 10.72-10.17-4.4-4.18c2.24-3.35 3.68-6.54 4.56-10.4H300v-14.36z" fill="#759c3e"/><path d="M289.1 658.5l-8.63-14.2-8.64 14.2h4.95c-1.4 8.82-10.04 14.9-19.33 13.58-2.9-.4-5.26-1.34-7.64-3.03l-4.12 5.28c3.6 2.55 7.3 3.9 11.73 4.35 13.17 1.34 24.94-7.7 26.33-20.2zM243.18 653.7c1.4-8.83 10.02-14.9 19.3-13.6 2.92.42 5.3 1.35 7.7 3.04l4.12-5.28c-3.6-2.55-7.3-3.9-11.77-4.35-13.1-1.33-24.9 7.7-26.3 20.2h-5.33l8.63 14.2 8.68-14.2z" fill="#fff"/><use xlink:href="#w" transform="matrix(1,0,0,1,220,698.1172839505598) translate(20 14.4)"/><use xlink:href="#x" transform="matrix(1,0,0,1,220,698.1172839505598) translate(15.049999999999997 36)"/><path d="M119.06 471.1l-5.05 3.4-2.46-5.54c-4.02-8.66-12.16-13.9-21.73-13.9h-.1c-13.18 0-23.8 10.67-23.8 23.75l.1 4.43-3.7 1.07c-6.07 1.74-11.02 9.5-11.02 14.75v1.9c0 6.4 7.83 13.8 17.82 13.8h67.36c10 0 17.82-7.4 17.82-13.8v-1.9c0-6.45-7.2-14.87-15.65-15.64l-4.53-.35-.1-4.48c-.1-1.9-.63-3.52-1.66-5.07-2.98-4.36-8.96-5.44-13.28-2.45z" fill="#19486f"/><path d="M119.06 466.67l-5.05 3.4-2.56-5.5c-3.92-8.7-12.06-13.95-21.63-13.95h-.1c-13.18 0-23.8 10.62-23.8 23.75l.1 4.42-3.7 1.06c-6.07 1.74-11.02 9.5-11.02 14.75v1.92c0 6.38 7.83 13.8 17.82 13.8h67.36c10 0 17.82-7.42 17.82-13.8v-1.9c0-6.46-7.2-14.87-15.65-15.6l-4.53-.4-.1-4.5c-.1-1.9-.63-3.5-1.66-5.06-2.98-4.36-8.96-5.43-13.28-2.45z" fill="#2e73b8"/><path d="M57.57 537.27h87.6v33.34h-87.6v-33.33z" fill="#19486f"/><path d="M57.57 532.76h87.6v33.33h-87.6v-33.34z" fill="#2e73b8"/><path d="M99.1 510.3h4.54v39.1H99.1v-39.1z" fill="#2e73b8"/><path d="M99.1 495.17h4.54v15.16H99.1v-15.16z" fill="#fff"/><path d="M101.37 486.64l-6.8 9.9h13.6l-6.8-9.9zM75.42 541.78h.03c7.3 0 7.3 0 7.3 7.25v.03c0 7.25 0 7.25-7.3 7.25h-.03c-7.3 0-7.3 0-7.3-7.24v-.03c0-7.25 0-7.25 7.3-7.25zM110.7 556.3H91.8l9.45-14.52 9.44 14.52zM119.76 541.78h14.6v14.53h-14.6V541.8z" fill="#fff"/><use xlink:href="#s" transform="matrix(1,0,0,1,51.28395061728392,570.6172839506173) translate(7.075000000000003 14.4)"/><use xlink:href="#t" transform="matrix(1,0,0,1,51.28395061728392,570.6172839506173) translate(54.025000000000006 14.4)"/><path d="M539.03 350.62h240v60h-240z" fill="none"/><use xlink:href="#y" transform="matrix(1,0,0,1,539.0339506172841,350.6172839506173) translate(44.3876953125 35.396484375)"/><path d="M999.03 350.62h240v60h-240z" fill="none"/><use xlink:href="#z" transform="matrix(1,0,0,1,999.0339506172843,350.6172839506173) translate(44.3876953125 35.396484375)"/><path d="M70.42 678.6H180v19.5H70.4zm0-22.4H180v17.7H70.4zM180 646.8v3.46H83.77v-3.47l55.34-18.95zm-71-11.2l-18.97.64c0-2.46-.44-4.77-1.32-7.02v-3.4c.34 1.1 17.44 4.5 17.44 4.5l2.85 5.27z" fill="#876929"/><path d="M180 625.83v20.92H83.77c5.92-5.23 7.9-13.42 4.93-20.92H180zM70.4 653H180v17.42H70.4zm0 24.17H180v17.48H70.4z" fill="#d9a741"/><path d="M84.7 636.32c0 7.1-5.52 12.87-12.34 12.87S60 643.42 60 636.3v-3.45l12.36-9.42 12.35 9.42v3.45z" fill="#8d090a"/><path d="M84.7 632.87c0 7.1-5.54 12.87-12.35 12.87-6.82 0-12.35-5.77-12.35-12.87S65.53 620 72.35 620c6.8 0 12.35 5.77 12.35 12.87z" fill="#ea2227"/><path d="M73.98 656.68h102.46v10.08H73.98zm0 24.2h102.46V691H73.98zM111.37 630.04h2.78v5.47h3.28v-5.46h2.78v14.33h-2.77V638h-3.28v6.37h-2.78zm18.9 0v2.36h-3v11.97h-2.83V632.4h-3v-2.36zm9.3 0v2.36h-3v11.97h-2.8V632.4h-3.08v-2.36zm1.22 0h4.87c2.86 0 3.8 2.15 3.8 4.3 0 2.97-1.74 4.3-4.37 4.3h-1.52v5.73h-2.8v-14.33zm2.8 6.48h1.23c1.1 0 1.87-.68 1.87-2.14 0-1.48-.53-2.2-1.94-2.2h-1.15v4.34z" fill="#fff"/><use xlink:href="#A" transform="matrix(1,0,0,1,60,698.1172839505598) translate(5.274999999999999 14.4)"/><use xlink:href="#B" transform="matrix(1,0,0,1,60,698.1172839505598) translate(56.775 14.4)"/><path d="M139.4 393.3l-20 36.02-15.24 24.88-1.7-1.04 15.22-24.85 19.97-35.94 72.56-140.58h2.26zm253.2-274.73l-1.26.08-9.56.94-8.96 1.26-8.48 1.56-8.05 1.84-7.7 2.1-7.4 2.36-7.14 2.6-6.94 2.87-6.77 3.13-6.65 3.43-6.55 3.73-6.5 4.07-6.5 4.45-6.52 4.9-6.58 5.38-6.7 5.96-6.9 6.67-7.12 7.5-7.5 8.6-7.97 9.95-8.7 11.84-9.8 14.57-1.08 1.78h-2.35l1.76-2.87 9.83-14.63 8.74-11.9 8.04-10.03 7.55-8.65 7.2-7.58 6.93-6.72 6.77-6.03 6.65-5.43 6.58-4.94 6.56-4.5 6.58-4.13 6.63-3.77 6.72-3.47 6.85-3.17 7-2.9 7.23-2.64 7.48-2.38 7.77-2.12 8.14-1.86 8.55-1.57 9.05-1.3 9.63-.95 1.3-.07z"/><path d="M104.18 454.18l-.55.9-1.7-1.08.54-.86zM407.8 117l-14.08 5.17-.35-9.26z"/><path d="M411.03 116.9l-18.26 6.68-.45-12zm-16.37 3.86l9.9-3.63-10.14-2.9z"/><use xlink:href="#C" transform="matrix(1,0,0,1,141.51617272106606,230.1811929779567) translate(0 14.4)"/><use xlink:href="#D" transform="matrix(1,0,0,1,141.51617272106606,230.1811929779567) translate(99.95 14.4)"/><path d="M529.3 335.94l11.82 12.7 7.44 8.7 5.42 6.9 4.18 5.82 3.33 5.1 2.7 4.53 2.25 4.1 1.86 3.82 1.57 3.54 1.3 3.33 1.07 3.14.9 3 .72 2.9.57 2.8.45 2.7.32 2.65.2 2.6.1 2.55-.02 2.53-.12 2.5-.23 2.53-.33 2.52-.45 2.54-.56 2.56-.7 2.6-.8 2.65-.97 2.72-1.13 2.78-1.3 2.9-1.5 3-1.76 3.1-1.48 2.43-1.7-1.04 1.46-2.38 1.7-3.05 1.47-2.92 1.26-2.8 1.1-2.72.93-2.63.8-2.58.65-2.52.54-2.48.42-2.45.32-2.43.22-2.44.12-2.43v-2.45l-.08-2.48-.2-2.5-.3-2.57-.43-2.63-.56-2.7-.7-2.82-.86-2.93-1.06-3.08-1.26-3.25-1.52-3.46-1.83-3.73-2.2-4.05-2.67-4.47-3.3-5-4.12-5.75-5.37-6.84-7.37-8.63-11.8-12.64-40.45-41.04h2.8zm-91.23-146.1l-.32 1.43-.5 2.87-.37 2.84-.26 2.83-.13 2.83-.03 2.82.1 2.85.23 2.9.35 2.92.5 3 .63 3.07.8 3.17.97 3.3 1.18 3.44 1.4 3.64 1.7 3.85 2.02 4.1 2.42 4.47 2.92 4.88 3.56 5.44 4.45 6.18 5.73 7.3 4.03 4.7h-2.63l-2.95-3.43-5.77-7.37-4.5-6.26-3.6-5.5-2.97-4.96-2.46-4.53-2.05-4.2-1.73-3.92-1.45-3.7-1.2-3.53-1-3.38-.82-3.26-.66-3.16-.5-3.08-.36-3.02-.22-2.96-.1-2.93v-2.93l.15-2.9.26-2.9.37-2.93.52-2.96.3-1.46z"/><path d="M564.17 454.18l-.54.9-1.7-1.08.54-.86zM441.78 190.25l-8.76-3.04 9.06-11.95z"/><path d="M442.75 191.64l-11.35-3.94 11.74-15.5zm-8.1-4.92l6.16 2.13.22-10.54z"/><use xlink:href="#C" transform="matrix(1,0,0,1,402.1567368342718,274.69373782173795) translate(0 14.4)"/><use xlink:href="#E" transform="matrix(1,0,0,1,402.1567368342718,274.69373782173795) translate(99.95 14.4)"/><path d="M682.83 288.45l30.84 7.4 200.3 32.7 30.88 6 18.73 4.5 13.22 3.74 10 3.3 7.88 2.98 6.4 2.73 5.3 2.54 4.5 2.37 3.82 2.25 3.3 2.12 2.9 2.03 2.53 1.95 2.25 1.88 2 1.83 1.8 1.77 1.6 1.74 1.47 1.7 1.3 1.7 1.2 1.65 1.1 1.65.97 1.65.9 1.64.8 1.65.73 1.68.66 1.68.6 1.7.5 1.73.44 1.76.38 1.82.3 1.86.24 1.93.15 2 .1 2.1-.03 2.17-.1 2.3-.22 2.42-.35 2.57-.48 2.75-.64 2.95-.84 3.2-1.08 3.46-1.35 3.8-1.7 4.2-2.12 4.72-2.67 5.3-3.37 6.05-3.77 6.13-1.7-1.04 3.74-6.1 3.34-5.98 2.64-5.23 2.1-4.62 1.66-4.14 1.33-3.74 1.04-3.4.83-3.1.63-2.87.47-2.68.33-2.48.2-2.34.1-2.2.03-2.1-.1-2-.14-1.93-.22-1.85-.3-1.78-.35-1.73-.43-1.68-.5-1.65-.54-1.63-.63-1.6-.7-1.58-.76-1.58-.85-1.57-.95-1.57-1.04-1.58-1.14-1.6-1.26-1.6-1.4-1.65-1.56-1.68-1.74-1.7-1.94-1.78-2.18-1.83-2.47-1.9-2.8-1.97-3.25-2.08-3.75-2.2-4.4-2.32-5.24-2.5-6.32-2.7-7.8-2.95-9.93-3.27-13.13-3.73-18.65-4.46-30.8-6-200.34-32.7-30.96-7.42-23.93-6.8-.6-.2h7.2zM517 188.7l3.5 5.35 3.8 5.26 4.07 5.23 4.42 5.18 4.78 5.17 5.2 5.16 5.7 5.17 6.2 5.2 6.83 5.24 7.56 5.3 8.38 5.4 9.38 5.48 10.58 5.6 9.1 4.35h-4.64l-5.36-2.56-10.65-5.63-9.46-5.53-8.46-5.43-7.6-5.34-6.9-5.3-6.3-5.25-5.73-5.22-5.25-5.22-4.85-5.22-4.48-5.24-4.13-5.28-3.84-5.34-3.55-5.4-.4-.7 1.7-1.04z"/><path d="M1024.18 454.18l-.55.9-1.7-1.08.54-.87zM519.36 185.5l-8.16 4.38-2.7-14.75z"/><path d="M521.04 185.7l-10.58 5.72-3.5-19.14zm-9.1 2.65l5.73-3.1-7.63-7.28z"/><use xlink:href="#C" transform="matrix(1,0,0,1,553.2393793936998,261.77084111657865) translate(0 14.4)"/><use xlink:href="#F" transform="matrix(1,0,0,1,553.2393793936998,261.77084111657865) translate(99.95 14.4)"/><path d="M944.14 328.54H249.3v103.58h-2V326.54h694.84V205.47h2z"/><path d="M944.14 205.5h-2v-1.03h2zM248.3 447.38l-4.64-14.26h9.27z"/><path d="M248.3 450.62l-6.02-18.5h12.03zm-3.26-16.5l3.25 10.03 3.25-10.03z"/><path d="M540.03 116.9H640.5" stroke="#000" stroke-width="2" fill="none"/><path d="M540.06 117.9h-1.12l.1-1-.1-1h1.12z"/><path d="M655.76 116.9l-14.26 4.63v-9.27z" stroke="#000" stroke-width="2"/><path d="M755.55 652.95c-.88-3.9-2.32-7.06-4.56-10.38l4.4-4.18v-4.1l-15.13-1.88c-3.52-2.16-6.88-3.53-10.96-4.4v-1.94h-15.1v1.94c-4.17.87-7.45 2.24-11.05 4.32l-15.04 1.95v4.1l4.4 4.17c-2.3 3.4-3.67 6.56-4.63 10.45h-6.16v14.33h6.17c.88 3.96 2.32 7.13 4.56 10.52h-4.4v4.03l10.72 10.16 4.4-4.1c3.52 2.08 6.88 3.45 10.96 4.3v5.85h15.2v-5.83c4.1-.86 7.45-2.16 10.97-4.32l4.4 4.18 10.72-10.23v-4.03H751c2.23-3.4 3.67-6.56 4.55-10.45h6.16v-14.47zm-12.24 17.57c-2.4 4.6-5.83 7.85-10.7 10.16-7.05 3.46-14.73 3.46-21.77 0-4.88-2.3-8.32-5.55-10.72-10.16-3.6-6.77-3.6-13.97 0-20.67 2.4-4.6 5.85-7.85 10.73-10.23 7.04-3.4 14.72-3.4 21.76 0 4.87 2.38 8.3 5.62 10.7 10.23 3.6 6.7 3.6 13.9 0 20.67z" fill="#4b612c"/><path d="M755.55 648.94c-.88-3.95-2.32-7.14-4.56-10.55l4.4-4.1-10.73-10.2-4.4 4.1c-3.52-2.1-6.88-3.4-10.96-4.3v-5.78h-15.1v5.84c-4.17.9-7.45 2.2-11.05 4.33l-4.4-4.2-10.64 10.2 4.33 4.1c-2.24 3.4-3.68 6.52-4.56 10.46h-6.16v14.35h6.17c.88 3.9 2.32 7.07 4.56 10.5l-4.32 4.17 10.65 10.17 4.4-4.18c3.6 2.13 6.88 3.42 11.04 4.33v5.84h15.1v-5.85c4.1-.84 7.45-2.2 10.97-4.34l4.4 4.18 10.72-10.17-4.4-4.18c2.23-3.35 3.67-6.54 4.55-10.4h6.16v-14.36z" fill="#759c3e"/><path d="M750.82 658.5l-8.65-14.2-8.64 14.2h4.95c-1.4 8.82-10.03 14.9-19.32 13.58-2.9-.4-5.26-1.34-7.65-3.03l-4.1 5.28c3.6 2.55 7.28 3.9 11.7 4.35 13.17 1.34 24.94-7.7 26.33-20.2zM704.88 653.7c1.4-8.83 10.03-14.9 19.32-13.6 2.9.42 5.3 1.35 7.68 3.04l4.12-5.28c-3.6-2.55-7.3-3.9-11.76-4.35-13.1-1.33-24.9 7.7-26.3 20.2h-5.34l8.64 14.2 8.68-14.2z" fill="#fff"/><use xlink:href="#w" transform="matrix(1,0,0,1,681.7055355140722,698.1172839505598) translate(20 14.4)"/><use xlink:href="#x" transform="matrix(1,0,0,1,681.7055355140722,698.1172839505598) translate(15.049999999999997 36)"/><path d="M532.12 678.6H641.7v19.5H532.1zm0-22.4H641.7v17.7H532.1zm109.57-9.4v3.46h-96.2v-3.47l55.32-18.95zm-71-11.2l-18.97.64c0-2.46-.43-4.77-1.3-7.02v-3.4c.32 1.1 17.4 4.5 17.4 4.5l2.86 5.27z" fill="#876929"/><path d="M641.7 625.83v20.92h-96.2c5.9-5.23 7.88-13.42 4.92-20.92h91.27zM532.1 653H641.7v17.42H532.1zm0 24.17H641.7v17.48H532.1z" fill="#d9a741"/><path d="M546.4 636.32c0 7.1-5.52 12.87-12.33 12.87-6.82 0-12.35-5.77-12.35-12.88v-3.45l12.35-9.42 12.34 9.42v3.45z" fill="#8d090a"/><path d="M546.4 632.87c0 7.1-5.53 12.87-12.35 12.87-6.8 0-12.34-5.77-12.34-12.87S527.25 620 534.06 620c6.82 0 12.35 5.77 12.35 12.87z" fill="#ea2227"/><path d="M535.7 656.68h102.44v10.08H535.7zm0 24.2h102.44V691H535.7zM573.08 630.04h2.78v5.47h3.28v-5.46h2.78v14.33h-2.78V638h-3.28v6.37h-2.78zm18.9 0v2.36h-3v11.97h-2.83V632.4h-3v-2.36zm9.3 0v2.36h-3v11.97h-2.8V632.4h-3.08v-2.36zm1.22 0h4.88c2.86 0 3.8 2.15 3.8 4.3 0 2.97-1.74 4.3-4.37 4.3h-1.52v5.73h-2.78v-14.33zm2.82 6.48h1.22c1.1 0 1.87-.68 1.87-2.14 0-1.48-.53-2.2-1.94-2.2h-1.14v4.34z" fill="#fff"/><use xlink:href="#A" transform="matrix(1,0,0,1,521.7055355140722,698.1172839505598) translate(5.274999999999999 14.4)"/><use xlink:href="#B" transform="matrix(1,0,0,1,521.7055355140722,698.1172839505598) translate(56.775 14.4)"/><path d="M1216.3 652.95c-.9-3.9-2.33-7.06-4.57-10.38l4.4-4.18v-4.1L1201 632.4c-3.5-2.16-6.87-3.53-10.95-4.4v-1.94h-15.12v1.94c-4.16.87-7.44 2.24-11.04 4.32l-15.05 1.95v4.1l4.4 4.17c-2.32 3.4-3.68 6.56-4.64 10.45h-6.15v14.33h6.16c.9 3.96 2.33 7.13 4.57 10.52h-4.4v4.03l10.72 10.16 4.4-4.1c3.5 2.08 6.87 3.45 10.95 4.3v5.85h15.2v-5.83c4.08-.86 7.44-2.16 10.96-4.32l4.4 4.18 10.73-10.23v-4.03h-4.4c2.24-3.4 3.68-6.56 4.56-10.45h6.15v-14.47zm-12.25 17.57c-2.4 4.6-5.84 7.85-10.72 10.16-7.04 3.46-14.72 3.46-21.76 0-4.88-2.3-8.32-5.55-10.72-10.16-3.6-6.77-3.6-13.97 0-20.67 2.4-4.6 5.84-7.85 10.72-10.23 7.04-3.4 14.72-3.4 21.76 0 4.88 2.38 8.32 5.62 10.72 10.23 3.6 6.7 3.6 13.9 0 20.67z" fill="#4b612c"/><path d="M1216.3 648.94c-.9-3.95-2.33-7.14-4.57-10.55l4.4-4.1-10.72-10.2-4.4 4.1c-3.5-2.1-6.87-3.4-10.95-4.3v-5.78h-15.12v5.84c-4.16.9-7.44 2.2-11.04 4.33l-4.4-4.2-10.65 10.2 4.32 4.1c-2.24 3.4-3.68 6.52-4.56 10.46h-6.15v14.35h6.16c.9 3.9 2.33 7.07 4.57 10.5l-4.32 4.17 10.64 10.17 4.4-4.18c3.6 2.13 6.87 3.42 11.03 4.33v5.84h15.12v-5.85c4.08-.84 7.44-2.2 10.96-4.34l4.4 4.18 10.73-10.17-4.4-4.18c2.24-3.35 3.68-6.54 4.56-10.4h6.15v-14.36z" fill="#759c3e"/><path d="M1211.56 658.5l-8.65-14.2-8.63 14.2h4.95c-1.4 8.82-10.03 14.9-19.32 13.58-2.9-.4-5.26-1.34-7.65-3.03l-4.12 5.28c3.6 2.55 7.3 3.9 11.72 4.35 13.16 1.34 24.93-7.7 26.32-20.2zM1165.62 653.7c1.4-8.83 10.03-14.9 19.32-13.6 2.9.42 5.3 1.35 7.68 3.04l4.12-5.28c-3.6-2.55-7.3-3.9-11.76-4.35-13.1-1.33-24.9 7.7-26.3 20.2h-5.34l8.64 14.2 8.68-14.2z" fill="#fff"/><use xlink:href="#w" transform="matrix(1,0,0,1,1142.4450216454288,698.1172839505598) translate(20 14.4)"/><use xlink:href="#x" transform="matrix(1,0,0,1,1142.4450216454288,698.1172839505598) translate(15.049999999999997 36)"/><path d="M992.86 678.6h109.57v19.5H992.86zm0-22.4h109.57v17.7H992.86zm109.57-9.4v3.46h-96.2v-3.47l55.33-18.95zm-71-11.2l-18.96.64c0-2.46-.43-4.77-1.3-7.02v-3.4c.32 1.1 17.4 4.5 17.4 4.5l2.86 5.27z" fill="#876929"/><path d="M1102.43 625.83v20.92h-96.2c5.92-5.23 7.9-13.42 4.93-20.92h91.27zM992.86 653h109.57v17.42H992.86zm0 24.17h109.57v17.48H992.86z" fill="#d9a741"/><path d="M1007.15 636.32c0 7.1-5.53 12.87-12.34 12.87-6.8 0-12.34-5.77-12.34-12.88v-3.45l12.35-9.42 12.35 9.42v3.45z" fill="#8d090a"/><path d="M1007.14 632.87c0 7.1-5.53 12.87-12.35 12.87-6.82 0-12.35-5.77-12.35-12.87S987.98 620 994.8 620c6.8 0 12.34 5.77 12.34 12.87z" fill="#ea2227"/><path d="M996.43 656.68h102.45v10.08H996.43zm0 24.2h102.45V691H996.43zM1033.82 630.04h2.78v5.47h3.28v-5.46h2.78v14.33h-2.78V638h-3.28v6.37h-2.78zm18.9 0v2.36h-3v11.97h-2.83V632.4h-3.02v-2.36zm9.3 0v2.36h-3v11.97h-2.8V632.4h-3.08v-2.36zm1.22 0h4.88c2.86 0 3.8 2.15 3.8 4.3 0 2.97-1.74 4.3-4.37 4.3h-1.53v5.73h-2.78v-14.33zm2.82 6.48h1.22c1.1 0 1.87-.68 1.87-2.14 0-1.48-.54-2.2-1.95-2.2h-1.14v4.34z" fill="#fff"/><use xlink:href="#A" transform="matrix(1,0,0,1,982.4450216454288,698.1172839505598) translate(5.274999999999999 14.4)"/><use xlink:href="#B" transform="matrix(1,0,0,1,982.4450216454288,698.1172839505598) translate(56.775 14.4)"/><path d="M1181.62 531.18l-123.88 84.24M1181.6 531.2l.85-.58" stroke="#000" stroke-width="2" fill="none"/><path d="M1059.52 619.82l-14.4 4.2 9.2-11.87z"/><path d="M1061.12 620.4l-18.67 5.43 11.9-15.38zm-13.32 1.8l10.12-2.96-3.66-5.4z"/><path d="M1182.45 531.62v68M1182.45 531.64v-1.02" stroke="#000" stroke-width="2" fill="none"/><path d="M1182.45 614.88l-4.64-14.26h9.28z" stroke="#000" stroke-width="2"/><path d="M944.14 328.54H711v103.58h-2V326.54h233.14V205.47h2z"/><path d="M944.14 205.5h-2v-1.03h2zM710 447.38l-4.64-14.26h9.28z"/><path d="M710 450.62l-6-18.5h12zm-3.26-16.5l3.26 10.03 3.26-10.03z"/><path d="M943.14 205.47v122.07h239.3v104.58" stroke="#000" stroke-width="2" fill="none"/><path d="M944.14 205.5h-2v-1.03h2z"/><path d="M1182.45 447.38l-4.64-14.26h9.28z" stroke="#000" stroke-width="2"/><path d="M180 450.62h136.6v80H180v-80z" fill="#4b612c"/><path d="M180 476.15h136.6v51.64H180v-51.65z" fill="#759c3e"/><path d="M128.3 460h240v60h-240z" stroke="#000" stroke-opacity="0" stroke-width="2" fill="#fff" fill-opacity="0"/><g><use xlink:href="#G" transform="matrix(1,0,0,1,133.29446448595263,465) translate(58.05 28.6)"/><use xlink:href="#H" transform="matrix(1,0,0,1,133.29446448595263,465) translate(103.05 28.6)"/></g><path d="M247.5 531.2l-112.64 83.6" stroke="#000" stroke-width="2" fill="none"/><path d="M248.07 532.03l-1.05-1.4h2.95zM136.82 619.12l-14.22 4.78 8.7-12.22z"/><path d="M138.44 619.63l-18.44 6.2 11.27-15.86zm-13.24 2.34l10-3.36-3.9-5.22z"/><path d="M248.3 531.62v42.75H260v25.25" stroke="#000" stroke-width="2" fill="none"/><path d="M249.3 531.64h-2v-1.02h2z"/><path d="M260 614.88l-4.64-14.26h9.28z" stroke="#000" stroke-width="2"/><path d="M651.7 450h136.6v80H651.7v-80z" fill="#4b612c"/><path d="M651.7 475.54h136.6v51.64H651.7v-51.64z" fill="#759c3e"/><path d="M600 459.38h240v60H600z" stroke="#000" stroke-opacity="0" stroke-width="2" fill="#fff" fill-opacity="0"/><g><use xlink:href="#G" transform="matrix(1,0,0,1,605,464.3827160493827) translate(58.05 28.6)"/><use xlink:href="#H" transform="matrix(1,0,0,1,605,464.3827160493827) translate(103.05 28.6)"/></g><path d="M719.18 530.57L596.9 615.3" stroke="#000" stroke-width="2" fill="none"/><path d="M719.73 531.4l-.98-1.4h3zM598.73 619.67l-14.36 4.3 9.08-11.92z"/><path d="M600.34 620.23l-18.63 5.6 11.8-15.48zm-13.3 1.9l10.1-3.02-3.73-5.35z"/><path d="M720 531v68.62" stroke="#000" stroke-width="2" fill="none"/><path d="M721 531.03h-2V530h2z"/><path d="M720 614.88l-4.64-14.26h9.28z" stroke="#000" stroke-width="2"/><path d="M1114.15 449.38h136.6v80h-136.6v-80z" fill="#4b612c"/><path d="M1114.15 474.92h136.6v51.64h-136.6v-51.64z" fill="#759c3e"/><path d="M1062.45 458.77h240v60h-240z" stroke="#000" stroke-opacity="0" stroke-width="2" fill="#fff" fill-opacity="0"/><g><use xlink:href="#G" transform="matrix(1,0,0,1,1067.4450216454288,463.76543209876536) translate(58.05 28.6)"/><use xlink:href="#H" transform="matrix(1,0,0,1,1067.4450216454288,463.76543209876536) translate(103.05 28.6)"/></g><path d="M350.62 20h240v60h-240z" stroke="#000" stroke-opacity="0" stroke-width="2" fill="#fff" fill-opacity="0"/><g><use xlink:href="#s" transform="matrix(1,0,0,1,355.6172839505598,25) translate(67.57499999999999 28.6)"/><use xlink:href="#I" transform="matrix(1,0,0,1,355.6172839505598,25) translate(114.52499999999999 28.6)"/></g><defs><path d="M706-1102c241 0 344 136 343 381V0H868v-695c1-168-57-273-220-268-190 6-283 138-283 336V0H185c-3-360 6-732-6-1082h170c4 54 7 126 8 185h3c63-121 164-204 346-205" id="J"/><path d="M615-1102c343 0 484 203 482 560-1 347-147 562-488 562-336 0-475-219-479-562-4-349 156-560 485-560zm-8 989c240 0 301-180 301-429 0-245-55-427-290-427-236 0-299 181-299 427 0 243 61 429 288 429" id="K"/><path d="M865-914c-3-187-2-380-2-570h180v1261c0 76 1 155 6 223H877c-8-49-9-116-10-174h-5C801-44 708 26 530 26c-135 0-234-46-297-139s-95-232-95-419c0-377 131-566 392-566 176 0 271 63 335 184zm-286-51c-222 0-255 197-255 427 0 229 31 425 253 425 237 0 286-195 286-441 0-238-52-411-284-411" id="L"/><path d="M617-1102c355 0 481 238 477 599H322c5 222 84 388 301 388 144 0 244-59 284-166l158 45C1002-72 854 20 623 20c-342 0-490-220-490-568 0-346 151-554 484-554zm291 461c-18-192-90-328-289-328-194 0-287 128-295 328h584" id="M"/><path d="M1034 0L896-382H333L196 0H0l510-1349h217L1228 0h-194zM847-531c-77-225-157-447-231-674-69 231-154 451-232 674h463" id="N"/><path d="M496 0v-299h235V0H496" id="O"/><path d="M168 279c222 39 310-114 368-290L66-1082h192c120 299 249 590 362 896 115-301 235-597 351-896h190L705 0c-65 164-130 320-275 396-67 36-177 35-262 18V279" id="P"/><path d="M528 20c-247 0-343-132-343-381v-721h180v686c-4 177 45 284 224 277 194-8 279-136 279-336v-627h181c3 360-6 732 6 1082H885c-4-54-7-126-8-185h-3C809-64 714 20 528 20" id="Q"/><path d="M682 16c-209 0-323-80-324-285v-671H190v-142h170l58-282h120v282h432v142H538v652c2 114 60 155 182 155 106 0 209-16 297-34v137C921-4 806 16 682 16" id="R"/><g id="a"><use transform="matrix(0.0087890625,0,0,0.0087890625,0,0)" xlink:href="#J"/><use transform="matrix(0.0087890625,0,0,0.0087890625,10.8017578125,0)" xlink:href="#K"/><use transform="matrix(0.0087890625,0,0,0.0087890625,21.603515625,0)" xlink:href="#L"/><use transform="matrix(0.0087890625,0,0,0.0087890625,32.4052734375,0)" xlink:href="#M"/><use transform="matrix(0.0087890625,0,0,0.0087890625,43.20703125,0)" xlink:href="#N"/><use transform="matrix(0.0087890625,0,0,0.0087890625,54.0087890625,0)" xlink:href="#O"/><use transform="matrix(0.0087890625,0,0,0.0087890625,64.810546875,0)" xlink:href="#L"/><use transform="matrix(0.0087890625,0,0,0.0087890625,75.6123046875,0)" xlink:href="#P"/><use transform="matrix(0.0087890625,0,0,0.0087890625,86.4140625,0)" xlink:href="#J"/><use transform="matrix(0.0087890625,0,0,0.0087890625,97.2158203125,0)" xlink:href="#Q"/><use transform="matrix(0.0087890625,0,0,0.0087890625,108.017578125,0)" xlink:href="#O"/><use transform="matrix(0.0087890625,0,0,0.0087890625,118.8193359375,0)" xlink:href="#J"/><use transform="matrix(0.0087890625,0,0,0.0087890625,129.62109375,0)" xlink:href="#M"/><use transform="matrix(0.0087890625,0,0,0.0087890625,140.4228515625,0)" xlink:href="#R"/></g><path d="M127-220V0H93v-220H8v-28h204v28h-85" id="S"/><path d="M195 0l-74-108L45 0H8l94-129-87-119h37l69 98 67-98h37l-84 118L233 0h-38" id="T"/><g id="b"><use transform="matrix(0.05,0,0,0.05,0,0)" xlink:href="#S"/><use transform="matrix(0.05,0,0,0.05,10.950000000000001,0)" xlink:href="#T"/><use transform="matrix(0.05,0,0,0.05,22.950000000000003,0)" xlink:href="#S"/></g><path d="M114-163C36-179 61-72 57 0H25l-1-190h30c1 12-1 29 2 39 6-27 23-49 58-41v29" id="U"/><path d="M100-194c63 0 86 42 84 106H49c0 40 14 67 53 68 26 1 43-12 49-29l28 8c-11 28-37 45-77 45C44 4 14-33 15-96c1-61 26-98 85-98zm52 81c6-60-76-77-97-28-3 7-6 17-6 28h103" id="V"/><path d="M96-169c-40 0-48 33-48 73s9 75 48 75c24 0 41-14 43-38l32 2c-6 37-31 61-74 61-59 0-76-41-82-99-10-93 101-131 147-64 4 7 5 14 7 22l-32 3c-4-21-16-35-41-35" id="W"/><path d="M100-194c62-1 85 37 85 99 1 63-27 99-86 99S16-35 15-95c0-66 28-99 85-99zM99-20c44 1 53-31 53-75 0-43-8-75-51-75s-53 32-53 75 10 74 51 75" id="X"/><path d="M85-194c31 0 48 13 60 33l-1-100h32l1 261h-30c-2-10 0-23-3-31C134-8 116 4 85 4 32 4 16-35 15-94c0-66 23-100 70-100zm9 24c-40 0-46 34-46 75 0 40 6 74 45 74 42 0 51-32 51-76 0-42-9-74-50-73" id="Y"/><path d="M135-143c-3-34-86-38-87 0 15 53 115 12 119 90S17 21 10-45l28-5c4 36 97 45 98 0-10-56-113-15-118-90-4-57 82-63 122-42 12 7 21 19 24 35" id="Z"/><g id="c"><use transform="matrix(0.05,0,0,0.05,0,0)" xlink:href="#U"/><use transform="matrix(0.05,0,0,0.05,5.95,0)" xlink:href="#V"/><use transform="matrix(0.05,0,0,0.05,15.949999999999998,0)" xlink:href="#W"/><use transform="matrix(0.05,0,0,0.05,24.95,0)" xlink:href="#X"/><use transform="matrix(0.05,0,0,0.05,34.95,0)" xlink:href="#U"/><use transform="matrix(0.05,0,0,0.05,40.900000000000006,0)" xlink:href="#Y"/><use transform="matrix(0.05,0,0,0.05,50.900000000000006,0)" xlink:href="#Z"/></g><path d="M24-231v-30h32v30H24zM24 0v-190h32V0H24" id="aa"/><path d="M117-194c89-4 53 116 60 194h-32v-121c0-31-8-49-39-48C34-167 62-67 57 0H25l-1-190h30c1 10-1 24 2 32 11-22 29-35 61-36" id="ab"/><path d="M59-47c-2 24 18 29 38 22v24C64 9 27 4 27-40v-127H5v-23h24l9-43h21v43h35v23H59v120" id="ac"/><g id="d"><use transform="matrix(0.05,0,0,0.05,0,0)" xlink:href="#aa"/><use transform="matrix(0.05,0,0,0.05,3.95,0)" xlink:href="#ab"/><use transform="matrix(0.05,0,0,0.05,13.949999999999998,0)" xlink:href="#Z"/><use transform="matrix(0.05,0,0,0.05,22.95,0)" xlink:href="#V"/><use transform="matrix(0.05,0,0,0.05,32.95,0)" xlink:href="#U"/><use transform="matrix(0.05,0,0,0.05,38.900000000000006,0)" xlink:href="#ac"/><use transform="matrix(0.05,0,0,0.05,43.900000000000006,0)" xlink:href="#V"/><use transform="matrix(0.05,0,0,0.05,53.900000000000006,0)" xlink:href="#Y"/></g><path d="M115-194c53 0 69 39 70 98 0 66-23 100-70 100C84 3 66-7 56-30L54 0H23l1-261h32v101c10-23 28-34 59-34zm-8 174c40 0 45-34 45-75 0-40-5-75-45-74-42 0-51 32-51 76 0 43 10 73 51 73" id="ad"/><path d="M179-190L93 31C79 59 56 82 12 73V49c39 6 53-20 64-50L1-190h34L92-34l54-156h33" id="ae"/><g id="e"><use transform="matrix(0.05,0,0,0.05,0,0)" xlink:href="#ad"/><use transform="matrix(0.05,0,0,0.05,10,0)" xlink:href="#ae"/></g><path d="M30-248c118-7 216 8 213 122C240-48 200 0 122 0H30v-248zM63-27c89 8 146-16 146-99s-60-101-146-95v194" id="af"/><path d="M84 4C-5 8 30-112 23-190h32v120c0 31 7 50 39 49 72-2 45-101 50-169h31l1 190h-30c-1-10 1-25-2-33-11 22-28 36-60 37" id="ag"/><g id="f"><use transform="matrix(0.05,0,0,0.05,0,0)" xlink:href="#af"/><use transform="matrix(0.05,0,0,0.05,12.950000000000001,0)" xlink:href="#ae"/><use transform="matrix(0.05,0,0,0.05,21.950000000000003,0)" xlink:href="#ab"/><use transform="matrix(0.05,0,0,0.05,31.950000000000003,0)" xlink:href="#ag"/></g><path d="M24 0v-261h32V0H24" id="ah"/><path d="M33-154v-36h34v36H33zM33 0v-36h34V0H33" id="ai"/><g id="g"><use transform="matrix(0.05,0,0,0.05,0,0)" xlink:href="#W"/><use transform="matrix(0.05,0,0,0.05,9,0)" xlink:href="#ah"/><use transform="matrix(0.05,0,0,0.05,12.949999999999998,0)" xlink:href="#aa"/><use transform="matrix(0.05,0,0,0.05,16.9,0)" xlink:href="#V"/><use transform="matrix(0.05,0,0,0.05,26.899999999999995,0)" xlink:href="#ab"/><use transform="matrix(0.05,0,0,0.05,36.9,0)" xlink:href="#ac"/><use transform="matrix(0.05,0,0,0.05,41.9,0)" xlink:href="#ai"/></g><path d="M1018 0H814c-67-224-138-444-200-673C552-442 476-224 407 0H204L21-1082h178c43 310 105 601 126 933 54-225 128-425 193-638h193c63 212 134 415 185 638 22-336 90-622 136-933h176" id="aj"/><path d="M873-819c-18-114-119-146-250-146-163 0-245 50-245 151 0 151 170 148 294 185 182 54 388 94 388 320 0 240-189 325-439 329-245 4-410-69-454-268l159-31c24 133 136 168 295 165 144-2 270-31 270-171 0-164-195-160-331-202-167-52-350-87-350-299 0-218 173-315 413-313 220 2 373 77 412 260" id="ak"/><path d="M839-1102c70 0 148 7 206 17v167c-112-18-268-36-363 15-129 69-208 203-208 395V0H294c-10-367 32-789-52-1082h171c21 75 41 161 48 250h5c67-152 152-270 373-270" id="al"/><path d="M715 0H502L69-1082h202c94 253 197 500 285 758 19 57 36 126 52 183 96-335 234-626 350-941h201" id="am"/><path d="M745-142h380V0H143v-142h422v-798H246v-142h499v940zM545-1292v-192h200v192H545" id="an"/><path d="M631 20c-350 0-501-215-501-562 0-355 162-560 502-560 250 0 399 118 446 323l-192 14c-23-124-109-196-262-196-242 0-305 171-305 415 1 245 61 427 304 427 151 0 248-77 267-215l190 12C1039-107 883 20 631 20" id="ao"/><g id="h"><use transform="matrix(0.0087890625,0,0,0.0087890625,0,0)" xlink:href="#aj"/><use transform="matrix(0.0087890625,0,0,0.0087890625,10.8017578125,0)" xlink:href="#aj"/><use transform="matrix(0.0087890625,0,0,0.0087890625,21.603515625,0)" xlink:href="#aj"/><use transform="matrix(0.0087890625,0,0,0.0087890625,32.4052734375,0)" xlink:href="#O"/><use transform="matrix(0.0087890625,0,0,0.0087890625,43.20703125,0)" xlink:href="#ak"/><use transform="matrix(0.0087890625,0,0,0.0087890625,54.0087890625,0)" xlink:href="#M"/><use transform="matrix(0.0087890625,0,0,0.0087890625,64.810546875,0)" xlink:href="#al"/><use transform="matrix(0.0087890625,0,0,0.0087890625,75.6123046875,0)" xlink:href="#am"/><use transform="matrix(0.0087890625,0,0,0.0087890625,86.4140625,0)" xlink:href="#an"/><use transform="matrix(0.0087890625,0,0,0.0087890625,97.2158203125,0)" xlink:href="#ao"/><use transform="matrix(0.0087890625,0,0,0.0087890625,108.017578125,0)" xlink:href="#M"/><use transform="matrix(0.0087890625,0,0,0.0087890625,118.8193359375,0)" xlink:href="#O"/><use transform="matrix(0.0087890625,0,0,0.0087890625,129.62109375,0)" xlink:href="#L"/><use transform="matrix(0.0087890625,0,0,0.0087890625,140.4228515625,0)" xlink:href="#P"/><use transform="matrix(0.0087890625,0,0,0.0087890625,151.224609375,0)" xlink:href="#J"/><use transform="matrix(0.0087890625,0,0,0.0087890625,162.0263671875,0)" xlink:href="#Q"/><use transform="matrix(0.0087890625,0,0,0.0087890625,172.828125,0)" xlink:href="#O"/><use transform="matrix(0.0087890625,0,0,0.0087890625,183.6298828125,0)" xlink:href="#J"/><use transform="matrix(0.0087890625,0,0,0.0087890625,194.431640625,0)" xlink:href="#M"/><use transform="matrix(0.0087890625,0,0,0.0087890625,205.2333984375,0)" xlink:href="#R"/></g><path d="M202-1349h823v156H709v1037h316V0H202v-156h316v-1037H202v-156" id="ap"/><path d="M912-211c-10-84-18-177-18-274v-864h172V0H836L316-1130c7 79 16 167 16 254V0H162v-1349h222" id="aq"/><g id="i"><use transform="matrix(0.0087890625,0,0,0.0087890625,0,0)" xlink:href="#ap"/><use transform="matrix(0.0087890625,0,0,0.0087890625,10.8017578125,0)" xlink:href="#aq"/></g><path d="M709-1193V0H519v-1193H76v-156h1076v156H709" id="ar"/><path d="M614-836l333-513h205L717-705 1193 0H988L614-573 241 0H36l476-705-435-644h205" id="as"/><g id="j"><use transform="matrix(0.0087890625,0,0,0.0087890625,0,0)" xlink:href="#ar"/><use transform="matrix(0.0087890625,0,0,0.0087890625,10.8017578125,0)" xlink:href="#as"/><use transform="matrix(0.0087890625,0,0,0.0087890625,21.603515625,0)" xlink:href="#ar"/></g><path d="M1044 94c-116 96-242 189-450 189-304 0-446-213-512-468-90-345-18-804 126-1023 99-150 236-276 464-276 292 0 429 206 486 450 73 310 31 729-145 882-38 32-81 48-129 48-111 1-154-78-141-195h-6c-43 98-102 195-235 195-186 0-225-192-225-385 0-224 63-403 173-521 46-50 107-91 194-91 117 0 160 79 184 173h5l32-151h116c-45 245-103 479-136 733-8 62-9 140 46 140 75 0 105-78 129-152 53-166 68-445 22-636-33-142-99-259-202-326-112-74-280-58-384 19-199 148-286 441-286 787 0 288 75 520 251 630 53 33 115 49 183 49 172-2 274-77 369-158zM753-595c28-145 53-404-107-404-137 0-173 153-206 275-34 123-44 312-4 434 14 43 39 80 90 80 118 0 154-122 191-226 17-47 25-101 36-159" id="at"/><g id="k"><use transform="matrix(0.0087890625,0,0,0.0087890625,0,0)" xlink:href="#J"/><use transform="matrix(0.0087890625,0,0,0.0087890625,10.8017578125,0)" xlink:href="#K"/><use transform="matrix(0.0087890625,0,0,0.0087890625,21.603515625,0)" xlink:href="#L"/><use transform="matrix(0.0087890625,0,0,0.0087890625,32.4052734375,0)" xlink:href="#M"/><use transform="matrix(0.0087890625,0,0,0.0087890625,43.20703125,0)" xlink:href="#N"/><use transform="matrix(0.0087890625,0,0,0.0087890625,54.0087890625,0)" xlink:href="#at"/><use transform="matrix(0.0087890625,0,0,0.0087890625,64.810546875,0)" xlink:href="#J"/><use transform="matrix(0.0087890625,0,0,0.0087890625,75.6123046875,0)" xlink:href="#K"/><use transform="matrix(0.0087890625,0,0,0.0087890625,86.4140625,0)" xlink:href="#L"/><use transform="matrix(0.0087890625,0,0,0.0087890625,97.2158203125,0)" xlink:href="#M"/><use transform="matrix(0.0087890625,0,0,0.0087890625,108.017578125,0)" xlink:href="#N"/><use transform="matrix(0.0087890625,0,0,0.0087890625,118.8193359375,0)" xlink:href="#O"/><use transform="matrix(0.0087890625,0,0,0.0087890625,129.62109375,0)" xlink:href="#L"/><use transform="matrix(0.0087890625,0,0,0.0087890625,140.4228515625,0)" xlink:href="#P"/><use transform="matrix(0.0087890625,0,0,0.0087890625,151.224609375,0)" xlink:href="#J"/><use transform="matrix(0.0087890625,0,0,0.0087890625,162.0263671875,0)" xlink:href="#Q"/><use transform="matrix(0.0087890625,0,0,0.0087890625,172.828125,0)" xlink:href="#O"/><use transform="matrix(0.0087890625,0,0,0.0087890625,183.6298828125,0)" xlink:href="#J"/><use transform="matrix(0.0087890625,0,0,0.0087890625,194.431640625,0)" xlink:href="#M"/><use transform="matrix(0.0087890625,0,0,0.0087890625,205.2333984375,0)" xlink:href="#R"/></g><path d="M802-711c201 25 350 118 350 331C1152-95 921 0 634 0H162v-1349c401 9 908-74 908 327 0 184-111 275-268 311zm-224-69c174-2 300-51 300-218 0-163-124-198-302-198H353v416h225zM353-153c281-2 612 44 606-244-5-271-329-233-606-234v478" id="au"/><g id="l"><use transform="matrix(0.0087890625,0,0,0.0087890625,0,0)" xlink:href="#J"/><use transform="matrix(0.0087890625,0,0,0.0087890625,10.8017578125,0)" xlink:href="#K"/><use transform="matrix(0.0087890625,0,0,0.0087890625,21.603515625,0)" xlink:href="#L"/><use transform="matrix(0.0087890625,0,0,0.0087890625,32.4052734375,0)" xlink:href="#M"/><use transform="matrix(0.0087890625,0,0,0.0087890625,43.20703125,0)" xlink:href="#au"/><use transform="matrix(0.0087890625,0,0,0.0087890625,54.0087890625,0)" xlink:href="#at"/><use transform="matrix(0.0087890625,0,0,0.0087890625,64.810546875,0)" xlink:href="#J"/><use transform="matrix(0.0087890625,0,0,0.0087890625,75.6123046875,0)" xlink:href="#K"/><use transform="matrix(0.0087890625,0,0,0.0087890625,86.4140625,0)" xlink:href="#L"/><use transform="matrix(0.0087890625,0,0,0.0087890625,97.2158203125,0)" xlink:href="#M"/><use transform="matrix(0.0087890625,0,0,0.0087890625,108.017578125,0)" xlink:href="#au"/><use transform="matrix(0.0087890625,0,0,0.0087890625,118.8193359375,0)" xlink:href="#O"/><use transform="matrix(0.0087890625,0,0,0.0087890625,129.62109375,0)" xlink:href="#L"/><use transform="matrix(0.0087890625,0,0,0.0087890625,140.4228515625,0)" xlink:href="#P"/><use transform="matrix(0.0087890625,0,0,0.0087890625,151.224609375,0)" xlink:href="#J"/><use transform="matrix(0.0087890625,0,0,0.0087890625,162.0263671875,0)" xlink:href="#Q"/><use transform="matrix(0.0087890625,0,0,0.0087890625,172.828125,0)" xlink:href="#O"/><use transform="matrix(0.0087890625,0,0,0.0087890625,183.6298828125,0)" xlink:href="#J"/><use transform="matrix(0.0087890625,0,0,0.0087890625,194.431640625,0)" xlink:href="#M"/><use transform="matrix(0.0087890625,0,0,0.0087890625,205.2333984375,0)" xlink:href="#R"/></g><path d="M650-1214c-281 0-336 244-336 533 0 295 60 546 347 546 188 0 263-142 322-282l159 65C1058-155 935 20 659 20c-401 0-546-295-546-701 0-407 135-689 536-689 264 0 391 146 466 335l-168 65c-47-129-127-244-297-244" id="av"/><g id="m"><use transform="matrix(0.0087890625,0,0,0.0087890625,0,0)" xlink:href="#J"/><use transform="matrix(0.0087890625,0,0,0.0087890625,10.8017578125,0)" xlink:href="#K"/><use transform="matrix(0.0087890625,0,0,0.0087890625,21.603515625,0)" xlink:href="#L"/><use transform="matrix(0.0087890625,0,0,0.0087890625,32.4052734375,0)" xlink:href="#M"/><use transform="matrix(0.0087890625,0,0,0.0087890625,43.20703125,0)" xlink:href="#av"/><use transform="matrix(0.0087890625,0,0,0.0087890625,54.0087890625,0)" xlink:href="#at"/><use transform="matrix(0.0087890625,0,0,0.0087890625,64.810546875,0)" xlink:href="#J"/><use transform="matrix(0.0087890625,0,0,0.0087890625,75.6123046875,0)" xlink:href="#K"/><use transform="matrix(0.0087890625,0,0,0.0087890625,86.4140625,0)" xlink:href="#L"/><use transform="matrix(0.0087890625,0,0,0.0087890625,97.2158203125,0)" xlink:href="#M"/><use transform="matrix(0.0087890625,0,0,0.0087890625,108.017578125,0)" xlink:href="#av"/><use transform="matrix(0.0087890625,0,0,0.0087890625,118.8193359375,0)" xlink:href="#O"/><use transform="matrix(0.0087890625,0,0,0.0087890625,129.62109375,0)" xlink:href="#L"/><use transform="matrix(0.0087890625,0,0,0.0087890625,140.4228515625,0)" xlink:href="#P"/><use transform="matrix(0.0087890625,0,0,0.0087890625,151.224609375,0)" xlink:href="#J"/><use transform="matrix(0.0087890625,0,0,0.0087890625,162.0263671875,0)" xlink:href="#Q"/><use transform="matrix(0.0087890625,0,0,0.0087890625,172.828125,0)" xlink:href="#O"/><use transform="matrix(0.0087890625,0,0,0.0087890625,183.6298828125,0)" xlink:href="#J"/><use transform="matrix(0.0087890625,0,0,0.0087890625,194.431640625,0)" xlink:href="#M"/><use transform="matrix(0.0087890625,0,0,0.0087890625,205.2333984375,0)" xlink:href="#R"/></g><path d="M143 0L79-87 56-68V0H24v-261h32v163l83-92h37l-77 82L181 0h-38" id="aw"/><g id="n"><use transform="matrix(0.05,0,0,0.05,0,0)" xlink:href="#Y"/><use transform="matrix(0.05,0,0,0.05,10,0)" xlink:href="#X"/><use transform="matrix(0.05,0,0,0.05,20,0)" xlink:href="#W"/><use transform="matrix(0.05,0,0,0.05,29,0)" xlink:href="#aw"/><use transform="matrix(0.05,0,0,0.05,38,0)" xlink:href="#V"/><use transform="matrix(0.05,0,0,0.05,48,0)" xlink:href="#U"/></g><path d="M141-36C126-15 110 5 73 4 37 3 15-17 15-53c-1-64 63-63 125-63 3-35-9-54-41-54-24 1-41 7-42 31l-33-3c5-37 33-52 76-52 45 0 72 20 72 64v82c-1 20 7 32 28 27v20c-31 9-61-2-59-35zM48-53c0 20 12 33 32 33 41-3 63-29 60-74-43 2-92-5-92 41" id="ax"/><g id="o"><use transform="matrix(0.05,0,0,0.05,0,0)" xlink:href="#Z"/><use transform="matrix(0.05,0,0,0.05,9,0)" xlink:href="#ac"/><use transform="matrix(0.05,0,0,0.05,14,0)" xlink:href="#ax"/><use transform="matrix(0.05,0,0,0.05,24,0)" xlink:href="#W"/><use transform="matrix(0.05,0,0,0.05,33,0)" xlink:href="#aw"/></g><g id="p"><use transform="matrix(0.05,0,0,0.05,0,0)" xlink:href="#ax"/><use transform="matrix(0.05,0,0,0.05,10,0)" xlink:href="#ac"/></g><path d="M106-169C34-169 62-67 57 0H25v-261h32l-1 103c12-21 28-36 61-36 89 0 53 116 60 194h-32v-121c2-32-8-49-39-48" id="ay"/><path d="M210-169c-67 3-38 105-44 169h-31v-121c0-29-5-50-35-48C34-165 62-65 56 0H25l-1-190h30c1 10-1 24 2 32 10-44 99-50 107 0 11-21 27-35 58-36 85-2 47 119 55 194h-31v-121c0-29-5-49-35-48" id="az"/><g id="q"><use transform="matrix(0.05,0,0,0.05,0,0)" xlink:href="#ay"/><use transform="matrix(0.05,0,0,0.05,10,0)" xlink:href="#X"/><use transform="matrix(0.05,0,0,0.05,20,0)" xlink:href="#az"/><use transform="matrix(0.05,0,0,0.05,34.95,0)" xlink:href="#V"/></g><path d="M212-179c-10-28-35-45-73-45-59 0-87 40-87 99 0 60 29 101 89 101 43 0 62-24 78-52l27 14C228-24 195 4 139 4 59 4 22-46 18-125c-6-104 99-153 187-111 19 9 31 26 39 46" id="aA"/><use transform="matrix(0.05,0,0,0.05,0,0)" xlink:href="#aA" id="r"/><g id="s"><use transform="matrix(0.05,0,0,0.05,0,0)" xlink:href="#af"/><use transform="matrix(0.05,0,0,0.05,12.950000000000001,0)" xlink:href="#ae"/><use transform="matrix(0.05,0,0,0.05,21.950000000000003,0)" xlink:href="#ab"/><use transform="matrix(0.05,0,0,0.05,31.950000000000003,0)" xlink:href="#ag"/></g><g id="t"><use transform="matrix(0.05,0,0,0.05,0,0)" xlink:href="#W"/><use transform="matrix(0.05,0,0,0.05,9,0)" xlink:href="#ah"/><use transform="matrix(0.05,0,0,0.05,12.949999999999998,0)" xlink:href="#aa"/><use transform="matrix(0.05,0,0,0.05,16.9,0)" xlink:href="#V"/><use transform="matrix(0.05,0,0,0.05,26.899999999999995,0)" xlink:href="#ab"/><use transform="matrix(0.05,0,0,0.05,36.9,0)" xlink:href="#ac"/></g><path d="M160-131c35 5 61 23 61 61C221 17 115-2 30 0v-248c76 3 177-17 177 60 0 33-19 50-47 57zm-97-11c50-1 110 9 110-42 0-47-63-36-110-37v79zm0 115c55-2 124 14 124-45 0-56-70-42-124-44v89" id="aB"/><use transform="matrix(0.05,0,0,0.05,0,0)" xlink:href="#aB" id="u"/><path d="M205 0l-28-72H64L36 0H1l101-248h38L239 0h-34zm-38-99l-47-123c-12 45-31 82-46 123h93" id="aC"/><use transform="matrix(0.05,0,0,0.05,0,0)" xlink:href="#aC" id="v"/><path d="M185-189c-5-48-123-54-124 2 14 75 158 14 163 119 3 78-121 87-175 55-17-10-28-26-33-46l33-7c5 56 141 63 141-1 0-78-155-14-162-118-5-82 145-84 179-34 5 7 8 16 11 25" id="aD"/><g id="w"><use transform="matrix(0.05,0,0,0.05,0,0)" xlink:href="#aD"/><use transform="matrix(0.05,0,0,0.05,12,0)" xlink:href="#ae"/><use transform="matrix(0.05,0,0,0.05,21,0)" xlink:href="#ab"/><use transform="matrix(0.05,0,0,0.05,31,0)" xlink:href="#W"/></g><path d="M108 0H70L1-190h34L89-25l56-165h34" id="aE"/><g id="x"><use transform="matrix(0.05,0,0,0.05,0,0)" xlink:href="#Z"/><use transform="matrix(0.05,0,0,0.05,9,0)" xlink:href="#V"/><use transform="matrix(0.05,0,0,0.05,19,0)" xlink:href="#U"/><use transform="matrix(0.05,0,0,0.05,24.95,0)" xlink:href="#aE"/><use transform="matrix(0.05,0,0,0.05,33.95,0)" xlink:href="#V"/><use transform="matrix(0.05,0,0,0.05,43.95,0)" xlink:href="#U"/></g><g id="y"><use transform="matrix(0.0087890625,0,0,0.0087890625,0,0)" xlink:href="#J"/><use transform="matrix(0.0087890625,0,0,0.0087890625,10.8017578125,0)" xlink:href="#K"/><use transform="matrix(0.0087890625,0,0,0.0087890625,21.603515625,0)" xlink:href="#L"/><use transform="matrix(0.0087890625,0,0,0.0087890625,32.4052734375,0)" xlink:href="#M"/><use transform="matrix(0.0087890625,0,0,0.0087890625,43.20703125,0)" xlink:href="#au"/><use transform="matrix(0.0087890625,0,0,0.0087890625,54.0087890625,0)" xlink:href="#O"/><use transform="matrix(0.0087890625,0,0,0.0087890625,64.810546875,0)" xlink:href="#L"/><use transform="matrix(0.0087890625,0,0,0.0087890625,75.6123046875,0)" xlink:href="#P"/><use transform="matrix(0.0087890625,0,0,0.0087890625,86.4140625,0)" xlink:href="#J"/><use transform="matrix(0.0087890625,0,0,0.0087890625,97.2158203125,0)" xlink:href="#Q"/><use transform="matrix(0.0087890625,0,0,0.0087890625,108.017578125,0)" xlink:href="#O"/><use transform="matrix(0.0087890625,0,0,0.0087890625,118.8193359375,0)" xlink:href="#J"/><use transform="matrix(0.0087890625,0,0,0.0087890625,129.62109375,0)" xlink:href="#M"/><use transform="matrix(0.0087890625,0,0,0.0087890625,140.4228515625,0)" xlink:href="#R"/></g><g id="z"><use transform="matrix(0.0087890625,0,0,0.0087890625,0,0)" xlink:href="#J"/><use transform="matrix(0.0087890625,0,0,0.0087890625,10.8017578125,0)" xlink:href="#K"/><use transform="matrix(0.0087890625,0,0,0.0087890625,21.603515625,0)" xlink:href="#L"/><use transform="matrix(0.0087890625,0,0,0.0087890625,32.4052734375,0)" xlink:href="#M"/><use transform="matrix(0.0087890625,0,0,0.0087890625,43.20703125,0)" xlink:href="#av"/><use transform="matrix(0.0087890625,0,0,0.0087890625,54.0087890625,0)" xlink:href="#O"/><use transform="matrix(0.0087890625,0,0,0.0087890625,64.810546875,0)" xlink:href="#L"/><use transform="matrix(0.0087890625,0,0,0.0087890625,75.6123046875,0)" xlink:href="#P"/><use transform="matrix(0.0087890625,0,0,0.0087890625,86.4140625,0)" xlink:href="#J"/><use transform="matrix(0.0087890625,0,0,0.0087890625,97.2158203125,0)" xlink:href="#Q"/><use transform="matrix(0.0087890625,0,0,0.0087890625,108.017578125,0)" xlink:href="#O"/><use transform="matrix(0.0087890625,0,0,0.0087890625,118.8193359375,0)" xlink:href="#J"/><use transform="matrix(0.0087890625,0,0,0.0087890625,129.62109375,0)" xlink:href="#M"/><use transform="matrix(0.0087890625,0,0,0.0087890625,140.4228515625,0)" xlink:href="#R"/></g><path d="M197 0v-115H63V0H30v-248h33v105h134v-105h34V0h-34" id="aF"/><path d="M30-248c87 1 191-15 191 75 0 78-77 80-158 76V0H30v-248zm33 125c57 0 124 11 124-50 0-59-68-47-124-48v98" id="aG"/><g id="A"><use transform="matrix(0.05,0,0,0.05,0,0)" xlink:href="#aF"/><use transform="matrix(0.05,0,0,0.05,12.950000000000001,0)" xlink:href="#S"/><use transform="matrix(0.05,0,0,0.05,23.900000000000002,0)" xlink:href="#S"/><use transform="matrix(0.05,0,0,0.05,34.85,0)" xlink:href="#aG"/></g><g id="B"><use transform="matrix(0.05,0,0,0.05,0,0)" xlink:href="#ac"/><use transform="matrix(0.05,0,0,0.05,5,0)" xlink:href="#ag"/><use transform="matrix(0.05,0,0,0.05,15,0)" xlink:href="#ab"/><use transform="matrix(0.05,0,0,0.05,25,0)" xlink:href="#ab"/><use transform="matrix(0.05,0,0,0.05,35,0)" xlink:href="#V"/><use transform="matrix(0.05,0,0,0.05,45,0)" xlink:href="#ah"/><use transform="matrix(0.05,0,0,0.05,48.95,0)" xlink:href="#Z"/></g><path d="M177-190C167-65 218 103 67 71c-23-6-38-20-44-43l32-5c15 47 100 32 89-28v-30C133-14 115 1 83 1 29 1 15-40 15-95c0-56 16-97 71-98 29-1 48 16 59 35 1-10 0-23 2-32h30zM94-22c36 0 50-32 50-73 0-42-14-75-50-75-39 0-46 34-46 75s6 73 46 73" id="aH"/><g id="C"><use transform="matrix(0.05,0,0,0.05,0,0)" xlink:href="#aC"/><use transform="matrix(0.05,0,0,0.05,12,0)" xlink:href="#ab"/><use transform="matrix(0.05,0,0,0.05,22,0)" xlink:href="#ab"/><use transform="matrix(0.05,0,0,0.05,32,0)" xlink:href="#X"/><use transform="matrix(0.05,0,0,0.05,42,0)" xlink:href="#ag"/><use transform="matrix(0.05,0,0,0.05,52,0)" xlink:href="#ab"/><use transform="matrix(0.05,0,0,0.05,62,0)" xlink:href="#W"/><use transform="matrix(0.05,0,0,0.05,71,0)" xlink:href="#aa"/><use transform="matrix(0.05,0,0,0.05,74.95,0)" xlink:href="#ab"/><use transform="matrix(0.05,0,0,0.05,84.95,0)" xlink:href="#aH"/></g><g id="D"><use transform="matrix(0.05,0,0,0.05,0,0)" xlink:href="#ab"/><use transform="matrix(0.05,0,0,0.05,10,0)" xlink:href="#X"/><use transform="matrix(0.05,0,0,0.05,20,0)" xlink:href="#Y"/><use transform="matrix(0.05,0,0,0.05,30,0)" xlink:href="#V"/><use transform="matrix(0.05,0,0,0.05,40,0)" xlink:href="#aC"/></g><g id="E"><use transform="matrix(0.05,0,0,0.05,0,0)" xlink:href="#ab"/><use transform="matrix(0.05,0,0,0.05,10,0)" xlink:href="#X"/><use transform="matrix(0.05,0,0,0.05,20,0)" xlink:href="#Y"/><use transform="matrix(0.05,0,0,0.05,30,0)" xlink:href="#V"/><use transform="matrix(0.05,0,0,0.05,40,0)" xlink:href="#aB"/></g><g id="F"><use transform="matrix(0.05,0,0,0.05,0,0)" xlink:href="#ab"/><use transform="matrix(0.05,0,0,0.05,10,0)" xlink:href="#X"/><use transform="matrix(0.05,0,0,0.05,20,0)" xlink:href="#Y"/><use transform="matrix(0.05,0,0,0.05,30,0)" xlink:href="#V"/><use transform="matrix(0.05,0,0,0.05,40,0)" xlink:href="#aA"/></g><g id="G"><use transform="matrix(0.05,0,0,0.05,0,0)" xlink:href="#aD"/><use transform="matrix(0.05,0,0,0.05,12,0)" xlink:href="#ae"/><use transform="matrix(0.05,0,0,0.05,21,0)" xlink:href="#ab"/><use transform="matrix(0.05,0,0,0.05,31,0)" xlink:href="#W"/></g><path d="M115-194c55 1 70 41 70 98S169 2 115 4C84 4 66-9 55-30l1 105H24l-1-265h31l2 30c10-21 28-34 59-34zm-8 174c40 0 45-34 45-75s-6-73-45-74c-42 0-51 32-51 76 0 43 10 73 51 73" id="aI"/><g id="H"><use transform="matrix(0.05,0,0,0.05,0,0)" xlink:href="#Y"/><use transform="matrix(0.05,0,0,0.05,10,0)" xlink:href="#V"/><use transform="matrix(0.05,0,0,0.05,20,0)" xlink:href="#aI"/><use transform="matrix(0.05,0,0,0.05,30,0)" xlink:href="#ah"/><use transform="matrix(0.05,0,0,0.05,33.95,0)" xlink:href="#X"/><use transform="matrix(0.05,0,0,0.05,43.95,0)" xlink:href="#ae"/><use transform="matrix(0.05,0,0,0.05,52.95,0)" xlink:href="#V"/><use transform="matrix(0.05,0,0,0.05,62.95,0)" xlink:href="#U"/></g><path d="M190 0L58-211 59 0H30v-248h39L202-35l-2-213h31V0h-41" id="aJ"/><g id="I"><use transform="matrix(0.05,0,0,0.05,0,0)" xlink:href="#Y"/><use transform="matrix(0.05,0,0,0.05,10,0)" xlink:href="#af"/><use transform="matrix(0.05,0,0,0.05,22.950000000000003,0)" xlink:href="#aJ"/><use transform="matrix(0.05,0,0,0.05,35.900000000000006,0)" xlink:href="#aD"/></g></defs></g></svg>